<svg width="284" height="82" viewBox="0 0 284 82" fill="none" xmlns="http://www.w3.org/2000/svg">
<rect x="0.5" y="3.5" width="283" height="75" rx="13.5" fill="white"/>
<rect x="0.5" y="3.5" width="283" height="75" rx="13.5" stroke="#ECECED"/>
<g filter="url(#filter0_f_620_1072)">
<circle cx="42" cy="41" r="21" fill="#92939D" fill-opacity="0.5"/>
</g>
<circle cx="42" cy="41" r="26" fill="#4361EE" fill-opacity="0.05"/>
<circle cx="42" cy="41" r="18" fill="#4361EE"/>
<path fill-rule="evenodd" clip-rule="evenodd" d="M36.375 36.2398C36.375 35.1703 37.5217 34.4923 38.4592 35.0075L47.1143 39.7685C48.0855 40.3025 48.0855 41.6983 47.1143 42.2323L38.46 46.9933C37.5225 47.5085 36.3757 46.8305 36.3757 45.761V36.2398H36.375Z" fill="white"/>
<path d="M84 23V59" stroke="#4361EE" stroke-width="3.5" stroke-linecap="round"/>
<path d="M92 25L92 57" stroke="#4361EE" stroke-width="3.5" stroke-linecap="round"/>
<path d="M100 27L100 55" stroke="#4361EE" stroke-width="3.5" stroke-linecap="round"/>
<path d="M108 29L108 53" stroke="#4361EE" stroke-width="3.5" stroke-linecap="round"/>
<path d="M116 31L116 51" stroke="#4361EE" stroke-width="3.5" stroke-linecap="round"/>
<path d="M124 33L124 49" stroke="#4361EE" stroke-width="3.5" stroke-linecap="round"/>
<path d="M172 23V59" stroke="#4361EE" stroke-width="3.5" stroke-linecap="round"/>
<path d="M164 25L164 57" stroke="#4361EE" stroke-width="3.5" stroke-linecap="round"/>
<path d="M156 27L156 55" stroke="#4361EE" stroke-width="3.5" stroke-linecap="round"/>
<path d="M148 29L148 53" stroke="#4361EE" stroke-width="3.5" stroke-linecap="round"/>
<path d="M140 31L140 51" stroke="#4361EE" stroke-width="3.5" stroke-linecap="round"/>
<path d="M132 33L132 49" stroke="#4361EE" stroke-width="3.5" stroke-linecap="round"/>
<path d="M180 23V59" stroke="#4361EE" stroke-width="3.5" stroke-linecap="round"/>
<path d="M188 25L188 57" stroke="#4361EE" stroke-width="3.5" stroke-linecap="round"/>
<path d="M196 27L196 55" stroke="#4361EE" stroke-width="3.5" stroke-linecap="round"/>
<path d="M204 29L204 53" stroke="#4361EE" stroke-width="3.5" stroke-linecap="round"/>
<path d="M212 31L212 51" stroke="#4361EE" stroke-width="3.5" stroke-linecap="round"/>
<path d="M220 33L220 49" stroke="#4361EE" stroke-width="3.5" stroke-linecap="round"/>
<path d="M268 23V59" stroke="#4361EE" stroke-opacity="0.25" stroke-width="3.5" stroke-linecap="round"/>
<path d="M260 25L260 57" stroke="#4361EE" stroke-opacity="0.25" stroke-width="3.5" stroke-linecap="round"/>
<path d="M252 27L252 55" stroke="#4361EE" stroke-width="3.5" stroke-linecap="round"/>
<path d="M244 29L244 53" stroke="#4361EE" stroke-width="3.5" stroke-linecap="round"/>
<path d="M236 31L236 51" stroke="#4361EE" stroke-width="3.5" stroke-linecap="round"/>
<path d="M228 33L228 49" stroke="#4361EE" stroke-width="3.5" stroke-linecap="round"/>
<defs>
<filter id="filter0_f_620_1072" x="1" y="0" width="82" height="82" filterUnits="userSpaceOnUse" color-interpolation-filters="sRGB">
<feFlood flood-opacity="0" result="BackgroundImageFix"/>
<feBlend mode="normal" in="SourceGraphic" in2="BackgroundImageFix" result="shape"/>
<feGaussianBlur stdDeviation="10" result="effect1_foregroundBlur_620_1072"/>
</filter>
</defs>
</svg>
