<svg width="104" height="170" viewBox="0 0 104 170" fill="none" xmlns="http://www.w3.org/2000/svg">
<path d="M0 0H1.68317V1.68317H0V0Z" fill="#E5E5E5"/>
<path d="M8.41584 0H10.099V1.68317H8.41584V0Z" fill="#E5E5E5"/>
<path d="M16.8317 0H18.5149V1.68317H16.8317V0Z" fill="#E5E5E5"/>
<path d="M25.2475 0H26.9307V1.68317H25.2475V0Z" fill="#E5E5E5"/>
<path d="M33.6634 0H35.3465V1.68317H33.6634V0Z" fill="#E5E5E5"/>
<path d="M42.0792 0H43.7624V1.68317H42.0792V0Z" fill="#E5E5E5"/>
<path d="M50.495 0H52.1782V1.68317H50.495V0Z" fill="#E5E5E5"/>
<path d="M58.9109 0H60.5941V1.68317H58.9109V0Z" fill="#E5E5E5"/>
<path d="M67.3267 0H69.0099V1.68317H67.3267V0Z" fill="#E5E5E5"/>
<path d="M75.7426 0H77.4257V1.68317H75.7426V0Z" fill="#E5E5E5"/>
<path d="M84.1584 0H85.8416V1.68317H84.1584V0Z" fill="#E5E5E5"/>
<path d="M92.5743 0H94.2574V1.68317H92.5743V0Z" fill="#E5E5E5"/>
<path d="M100.99 0H102.673V1.68317H100.99V0Z" fill="#E5E5E5"/>
<path d="M109.406 0H111.089V1.68317H109.406V0Z" fill="#E5E5E5"/>
<path d="M117.822 0H119.505V1.68317H117.822V0Z" fill="#E5E5E5"/>
<path d="M126.238 0H127.921V1.68317H126.238V0Z" fill="#E5E5E5"/>
<path d="M134.653 0H136.337V1.68317H134.653V0Z" fill="#E5E5E5"/>
<path d="M143.069 0H144.752V1.68317H143.069V0Z" fill="#E5E5E5"/>
<path d="M151.485 0H153.168V1.68317H151.485V0Z" fill="#E5E5E5"/>
<path d="M159.901 0H161.584V1.68317H159.901V0Z" fill="#E5E5E5"/>
<path d="M168.317 0H170V1.68317H168.317V0Z" fill="#E5E5E5"/>
<path d="M0 8.41584H1.68317V10.099H0V8.41584Z" fill="#E5E5E5"/>
<path d="M8.41584 8.41584H10.099V10.099H8.41584V8.41584Z" fill="#E5E5E5"/>
<path d="M16.8317 8.41584H18.5149V10.099H16.8317V8.41584Z" fill="#E5E5E5"/>
<path d="M25.2475 8.41584H26.9307V10.099H25.2475V8.41584Z" fill="#E5E5E5"/>
<path d="M33.6634 8.41584H35.3465V10.099H33.6634V8.41584Z" fill="#E5E5E5"/>
<path d="M42.0792 8.41584H43.7624V10.099H42.0792V8.41584Z" fill="#E5E5E5"/>
<path d="M50.495 8.41584H52.1782V10.099H50.495V8.41584Z" fill="#E5E5E5"/>
<path d="M58.9109 8.41584H60.5941V10.099H58.9109V8.41584Z" fill="#E5E5E5"/>
<path d="M67.3267 8.41584H69.0099V10.099H67.3267V8.41584Z" fill="#E5E5E5"/>
<path d="M75.7426 8.41584H77.4257V10.099H75.7426V8.41584Z" fill="#E5E5E5"/>
<path d="M84.1584 8.41584H85.8416V10.099H84.1584V8.41584Z" fill="#E5E5E5"/>
<path d="M92.5743 8.41584H94.2574V10.099H92.5743V8.41584Z" fill="#E5E5E5"/>
<path d="M100.99 8.41584H102.673V10.099H100.99V8.41584Z" fill="#E5E5E5"/>
<path d="M109.406 8.41584H111.089V10.099H109.406V8.41584Z" fill="#E5E5E5"/>
<path d="M117.822 8.41584H119.505V10.099H117.822V8.41584Z" fill="#E5E5E5"/>
<path d="M126.238 8.41584H127.921V10.099H126.238V8.41584Z" fill="#E5E5E5"/>
<path d="M134.653 8.41584H136.337V10.099H134.653V8.41584Z" fill="#E5E5E5"/>
<path d="M143.069 8.41584H144.752V10.099H143.069V8.41584Z" fill="#E5E5E5"/>
<path d="M151.485 8.41584H153.168V10.099H151.485V8.41584Z" fill="#E5E5E5"/>
<path d="M159.901 8.41584H161.584V10.099H159.901V8.41584Z" fill="#E5E5E5"/>
<path d="M168.317 8.41584H170V10.099H168.317V8.41584Z" fill="#E5E5E5"/>
<path d="M0 16.8317H1.68317V18.5149H0V16.8317Z" fill="#E5E5E5"/>
<path d="M8.41584 16.8317H10.099V18.5149H8.41584V16.8317Z" fill="#E5E5E5"/>
<path d="M16.8317 16.8317H18.5149V18.5149H16.8317V16.8317Z" fill="#E5E5E5"/>
<path d="M25.2475 16.8317H26.9307V18.5149H25.2475V16.8317Z" fill="#E5E5E5"/>
<path d="M33.6634 16.8317H35.3465V18.5149H33.6634V16.8317Z" fill="#E5E5E5"/>
<path d="M42.0792 16.8317H43.7624V18.5149H42.0792V16.8317Z" fill="#E5E5E5"/>
<path d="M50.495 16.8317H52.1782V18.5149H50.495V16.8317Z" fill="#E5E5E5"/>
<path d="M58.9109 16.8317H60.5941V18.5149H58.9109V16.8317Z" fill="#E5E5E5"/>
<path d="M67.3267 16.8317H69.0099V18.5149H67.3267V16.8317Z" fill="#E5E5E5"/>
<path d="M75.7426 16.8317H77.4257V18.5149H75.7426V16.8317Z" fill="#E5E5E5"/>
<path d="M84.1584 16.8317H85.8416V18.5149H84.1584V16.8317Z" fill="#E5E5E5"/>
<path d="M92.5743 16.8317H94.2574V18.5149H92.5743V16.8317Z" fill="#E5E5E5"/>
<path d="M100.99 16.8317H102.673V18.5149H100.99V16.8317Z" fill="#E5E5E5"/>
<path d="M109.406 16.8317H111.089V18.5149H109.406V16.8317Z" fill="#E5E5E5"/>
<path d="M117.822 16.8317H119.505V18.5149H117.822V16.8317Z" fill="#E5E5E5"/>
<path d="M126.238 16.8317H127.921V18.5149H126.238V16.8317Z" fill="#E5E5E5"/>
<path d="M134.653 16.8317H136.337V18.5149H134.653V16.8317Z" fill="#E5E5E5"/>
<path d="M143.069 16.8317H144.752V18.5149H143.069V16.8317Z" fill="#E5E5E5"/>
<path d="M151.485 16.8317H153.168V18.5149H151.485V16.8317Z" fill="#E5E5E5"/>
<path d="M159.901 16.8317H161.584V18.5149H159.901V16.8317Z" fill="#E5E5E5"/>
<path d="M168.317 16.8317H170V18.5149H168.317V16.8317Z" fill="#E5E5E5"/>
<path d="M0 25.2475H1.68317V26.9307H0V25.2475Z" fill="#E5E5E5"/>
<path d="M8.41584 25.2475H10.099V26.9307H8.41584V25.2475Z" fill="#E5E5E5"/>
<path d="M16.8317 25.2475H18.5149V26.9307H16.8317V25.2475Z" fill="#E5E5E5"/>
<path d="M25.2475 25.2475H26.9307V26.9307H25.2475V25.2475Z" fill="#E5E5E5"/>
<path d="M33.6634 25.2475H35.3465V26.9307H33.6634V25.2475Z" fill="#E5E5E5"/>
<path d="M42.0792 25.2475H43.7624V26.9307H42.0792V25.2475Z" fill="#E5E5E5"/>
<path d="M50.495 25.2475H52.1782V26.9307H50.495V25.2475Z" fill="#E5E5E5"/>
<path d="M58.9109 25.2475H60.5941V26.9307H58.9109V25.2475Z" fill="#E5E5E5"/>
<path d="M67.3267 25.2475H69.0099V26.9307H67.3267V25.2475Z" fill="#E5E5E5"/>
<path d="M75.7426 25.2475H77.4257V26.9307H75.7426V25.2475Z" fill="#E5E5E5"/>
<path d="M84.1584 25.2475H85.8416V26.9307H84.1584V25.2475Z" fill="#E5E5E5"/>
<path d="M92.5743 25.2475H94.2574V26.9307H92.5743V25.2475Z" fill="#E5E5E5"/>
<path d="M100.99 25.2475H102.673V26.9307H100.99V25.2475Z" fill="#E5E5E5"/>
<path d="M109.406 25.2475H111.089V26.9307H109.406V25.2475Z" fill="#E5E5E5"/>
<path d="M117.822 25.2475H119.505V26.9307H117.822V25.2475Z" fill="#E5E5E5"/>
<path d="M126.238 25.2475H127.921V26.9307H126.238V25.2475Z" fill="#E5E5E5"/>
<path d="M134.653 25.2475H136.337V26.9307H134.653V25.2475Z" fill="#E5E5E5"/>
<path d="M143.069 25.2475H144.752V26.9307H143.069V25.2475Z" fill="#E5E5E5"/>
<path d="M151.485 25.2475H153.168V26.9307H151.485V25.2475Z" fill="#E5E5E5"/>
<path d="M159.901 25.2475H161.584V26.9307H159.901V25.2475Z" fill="#E5E5E5"/>
<path d="M168.317 25.2475H170V26.9307H168.317V25.2475Z" fill="#E5E5E5"/>
<path d="M0 33.6634H1.68317V35.3465H0V33.6634Z" fill="#E5E5E5"/>
<path d="M8.41584 33.6634H10.099V35.3465H8.41584V33.6634Z" fill="#E5E5E5"/>
<path d="M16.8317 33.6634H18.5149V35.3465H16.8317V33.6634Z" fill="#E5E5E5"/>
<path d="M25.2475 33.6634H26.9307V35.3465H25.2475V33.6634Z" fill="#E5E5E5"/>
<path d="M33.6634 33.6634H35.3465V35.3465H33.6634V33.6634Z" fill="#E5E5E5"/>
<path d="M42.0792 33.6634H43.7624V35.3465H42.0792V33.6634Z" fill="#E5E5E5"/>
<path d="M50.495 33.6634H52.1782V35.3465H50.495V33.6634Z" fill="#E5E5E5"/>
<path d="M58.9109 33.6634H60.5941V35.3465H58.9109V33.6634Z" fill="#E5E5E5"/>
<path d="M67.3267 33.6634H69.0099V35.3465H67.3267V33.6634Z" fill="#E5E5E5"/>
<path d="M75.7426 33.6634H77.4257V35.3465H75.7426V33.6634Z" fill="#E5E5E5"/>
<path d="M84.1584 33.6634H85.8416V35.3465H84.1584V33.6634Z" fill="#E5E5E5"/>
<path d="M92.5743 33.6634H94.2574V35.3465H92.5743V33.6634Z" fill="#E5E5E5"/>
<path d="M100.99 33.6634H102.673V35.3465H100.99V33.6634Z" fill="#E5E5E5"/>
<path d="M109.406 33.6634H111.089V35.3465H109.406V33.6634Z" fill="#E5E5E5"/>
<path d="M117.822 33.6634H119.505V35.3465H117.822V33.6634Z" fill="#E5E5E5"/>
<path d="M126.238 33.6634H127.921V35.3465H126.238V33.6634Z" fill="#E5E5E5"/>
<path d="M134.653 33.6634H136.337V35.3465H134.653V33.6634Z" fill="#E5E5E5"/>
<path d="M143.069 33.6634H144.752V35.3465H143.069V33.6634Z" fill="#E5E5E5"/>
<path d="M151.485 33.6634H153.168V35.3465H151.485V33.6634Z" fill="#E5E5E5"/>
<path d="M159.901 33.6634H161.584V35.3465H159.901V33.6634Z" fill="#E5E5E5"/>
<path d="M168.317 33.6634H170V35.3465H168.317V33.6634Z" fill="#E5E5E5"/>
<path d="M0 42.0792H1.68317V43.7624H0V42.0792Z" fill="#E5E5E5"/>
<path d="M8.41584 42.0792H10.099V43.7624H8.41584V42.0792Z" fill="#E5E5E5"/>
<path d="M16.8317 42.0792H18.5149V43.7624H16.8317V42.0792Z" fill="#E5E5E5"/>
<path d="M25.2475 42.0792H26.9307V43.7624H25.2475V42.0792Z" fill="#E5E5E5"/>
<path d="M33.6634 42.0792H35.3465V43.7624H33.6634V42.0792Z" fill="#E5E5E5"/>
<path d="M42.0792 42.0792H43.7624V43.7624H42.0792V42.0792Z" fill="#E5E5E5"/>
<path d="M50.495 42.0792H52.1782V43.7624H50.495V42.0792Z" fill="#E5E5E5"/>
<path d="M58.9109 42.0792H60.5941V43.7624H58.9109V42.0792Z" fill="#E5E5E5"/>
<path d="M67.3267 42.0792H69.0099V43.7624H67.3267V42.0792Z" fill="#E5E5E5"/>
<path d="M75.7426 42.0792H77.4257V43.7624H75.7426V42.0792Z" fill="#E5E5E5"/>
<path d="M84.1584 42.0792H85.8416V43.7624H84.1584V42.0792Z" fill="#E5E5E5"/>
<path d="M92.5743 42.0792H94.2574V43.7624H92.5743V42.0792Z" fill="#E5E5E5"/>
<path d="M100.99 42.0792H102.673V43.7624H100.99V42.0792Z" fill="#E5E5E5"/>
<path d="M109.406 42.0792H111.089V43.7624H109.406V42.0792Z" fill="#E5E5E5"/>
<path d="M117.822 42.0792H119.505V43.7624H117.822V42.0792Z" fill="#E5E5E5"/>
<path d="M126.238 42.0792H127.921V43.7624H126.238V42.0792Z" fill="#E5E5E5"/>
<path d="M134.653 42.0792H136.337V43.7624H134.653V42.0792Z" fill="#E5E5E5"/>
<path d="M143.069 42.0792H144.752V43.7624H143.069V42.0792Z" fill="#E5E5E5"/>
<path d="M151.485 42.0792H153.168V43.7624H151.485V42.0792Z" fill="#E5E5E5"/>
<path d="M159.901 42.0792H161.584V43.7624H159.901V42.0792Z" fill="#E5E5E5"/>
<path d="M168.317 42.0792H170V43.7624H168.317V42.0792Z" fill="#E5E5E5"/>
<path d="M0 50.495H1.68317V52.1782H0V50.495Z" fill="#E5E5E5"/>
<path d="M8.41584 50.495H10.099V52.1782H8.41584V50.495Z" fill="#E5E5E5"/>
<path d="M16.8317 50.495H18.5149V52.1782H16.8317V50.495Z" fill="#E5E5E5"/>
<path d="M25.2475 50.495H26.9307V52.1782H25.2475V50.495Z" fill="#E5E5E5"/>
<path d="M33.6634 50.495H35.3465V52.1782H33.6634V50.495Z" fill="#E5E5E5"/>
<path d="M42.0792 50.495H43.7624V52.1782H42.0792V50.495Z" fill="#E5E5E5"/>
<path d="M50.495 50.495H52.1782V52.1782H50.495V50.495Z" fill="#E5E5E5"/>
<path d="M58.9109 50.495H60.5941V52.1782H58.9109V50.495Z" fill="#E5E5E5"/>
<path d="M67.3267 50.495H69.0099V52.1782H67.3267V50.495Z" fill="#E5E5E5"/>
<path d="M75.7426 50.495H77.4257V52.1782H75.7426V50.495Z" fill="#E5E5E5"/>
<path d="M84.1584 50.495H85.8416V52.1782H84.1584V50.495Z" fill="#E5E5E5"/>
<path d="M92.5743 50.495H94.2574V52.1782H92.5743V50.495Z" fill="#E5E5E5"/>
<path d="M100.99 50.495H102.673V52.1782H100.99V50.495Z" fill="#E5E5E5"/>
<path d="M109.406 50.495H111.089V52.1782H109.406V50.495Z" fill="#E5E5E5"/>
<path d="M117.822 50.495H119.505V52.1782H117.822V50.495Z" fill="#E5E5E5"/>
<path d="M126.238 50.495H127.921V52.1782H126.238V50.495Z" fill="#E5E5E5"/>
<path d="M134.653 50.495H136.337V52.1782H134.653V50.495Z" fill="#E5E5E5"/>
<path d="M143.069 50.495H144.752V52.1782H143.069V50.495Z" fill="#E5E5E5"/>
<path d="M151.485 50.495H153.168V52.1782H151.485V50.495Z" fill="#E5E5E5"/>
<path d="M159.901 50.495H161.584V52.1782H159.901V50.495Z" fill="#E5E5E5"/>
<path d="M168.317 50.495H170V52.1782H168.317V50.495Z" fill="#E5E5E5"/>
<path d="M0 58.9109H1.68317V60.5941H0V58.9109Z" fill="#E5E5E5"/>
<path d="M8.41584 58.9109H10.099V60.5941H8.41584V58.9109Z" fill="#E5E5E5"/>
<path d="M16.8317 58.9109H18.5149V60.5941H16.8317V58.9109Z" fill="#E5E5E5"/>
<path d="M25.2475 58.9109H26.9307V60.5941H25.2475V58.9109Z" fill="#E5E5E5"/>
<path d="M33.6634 58.9109H35.3465V60.5941H33.6634V58.9109Z" fill="#E5E5E5"/>
<path d="M42.0792 58.9109H43.7624V60.5941H42.0792V58.9109Z" fill="#E5E5E5"/>
<path d="M50.495 58.9109H52.1782V60.5941H50.495V58.9109Z" fill="#E5E5E5"/>
<path d="M58.9109 58.9109H60.5941V60.5941H58.9109V58.9109Z" fill="#E5E5E5"/>
<path d="M67.3267 58.9109H69.0099V60.5941H67.3267V58.9109Z" fill="#E5E5E5"/>
<path d="M75.7426 58.9109H77.4257V60.5941H75.7426V58.9109Z" fill="#E5E5E5"/>
<path d="M84.1584 58.9109H85.8416V60.5941H84.1584V58.9109Z" fill="#E5E5E5"/>
<path d="M92.5743 58.9109H94.2574V60.5941H92.5743V58.9109Z" fill="#E5E5E5"/>
<path d="M100.99 58.9109H102.673V60.5941H100.99V58.9109Z" fill="#E5E5E5"/>
<path d="M109.406 58.9109H111.089V60.5941H109.406V58.9109Z" fill="#E5E5E5"/>
<path d="M117.822 58.9109H119.505V60.5941H117.822V58.9109Z" fill="#E5E5E5"/>
<path d="M126.238 58.9109H127.921V60.5941H126.238V58.9109Z" fill="#E5E5E5"/>
<path d="M134.653 58.9109H136.337V60.5941H134.653V58.9109Z" fill="#E5E5E5"/>
<path d="M143.069 58.9109H144.752V60.5941H143.069V58.9109Z" fill="#E5E5E5"/>
<path d="M151.485 58.9109H153.168V60.5941H151.485V58.9109Z" fill="#E5E5E5"/>
<path d="M159.901 58.9109H161.584V60.5941H159.901V58.9109Z" fill="#E5E5E5"/>
<path d="M168.317 58.9109H170V60.5941H168.317V58.9109Z" fill="#E5E5E5"/>
<path d="M0 67.3267H1.68317V69.0099H0V67.3267Z" fill="#E5E5E5"/>
<path d="M8.41584 67.3267H10.099V69.0099H8.41584V67.3267Z" fill="#E5E5E5"/>
<path d="M16.8317 67.3267H18.5149V69.0099H16.8317V67.3267Z" fill="#E5E5E5"/>
<path d="M25.2475 67.3267H26.9307V69.0099H25.2475V67.3267Z" fill="#E5E5E5"/>
<path d="M33.6634 67.3267H35.3465V69.0099H33.6634V67.3267Z" fill="#E5E5E5"/>
<path d="M42.0792 67.3267H43.7624V69.0099H42.0792V67.3267Z" fill="#E5E5E5"/>
<path d="M50.495 67.3267H52.1782V69.0099H50.495V67.3267Z" fill="#E5E5E5"/>
<path d="M58.9109 67.3267H60.5941V69.0099H58.9109V67.3267Z" fill="#E5E5E5"/>
<path d="M67.3267 67.3267H69.0099V69.0099H67.3267V67.3267Z" fill="#E5E5E5"/>
<path d="M75.7426 67.3267H77.4257V69.0099H75.7426V67.3267Z" fill="#E5E5E5"/>
<path d="M84.1584 67.3267H85.8416V69.0099H84.1584V67.3267Z" fill="#E5E5E5"/>
<path d="M92.5743 67.3267H94.2574V69.0099H92.5743V67.3267Z" fill="#E5E5E5"/>
<path d="M100.99 67.3267H102.673V69.0099H100.99V67.3267Z" fill="#E5E5E5"/>
<path d="M109.406 67.3267H111.089V69.0099H109.406V67.3267Z" fill="#E5E5E5"/>
<path d="M117.822 67.3267H119.505V69.0099H117.822V67.3267Z" fill="#E5E5E5"/>
<path d="M126.238 67.3267H127.921V69.0099H126.238V67.3267Z" fill="#E5E5E5"/>
<path d="M134.653 67.3267H136.337V69.0099H134.653V67.3267Z" fill="#E5E5E5"/>
<path d="M143.069 67.3267H144.752V69.0099H143.069V67.3267Z" fill="#E5E5E5"/>
<path d="M151.485 67.3267H153.168V69.0099H151.485V67.3267Z" fill="#E5E5E5"/>
<path d="M159.901 67.3267H161.584V69.0099H159.901V67.3267Z" fill="#E5E5E5"/>
<path d="M168.317 67.3267H170V69.0099H168.317V67.3267Z" fill="#E5E5E5"/>
<path d="M0 75.7426H1.68317V77.4257H0V75.7426Z" fill="#E5E5E5"/>
<path d="M8.41584 75.7426H10.099V77.4257H8.41584V75.7426Z" fill="#E5E5E5"/>
<path d="M16.8317 75.7426H18.5149V77.4257H16.8317V75.7426Z" fill="#E5E5E5"/>
<path d="M25.2475 75.7426H26.9307V77.4257H25.2475V75.7426Z" fill="#E5E5E5"/>
<path d="M33.6634 75.7426H35.3465V77.4257H33.6634V75.7426Z" fill="#E5E5E5"/>
<path d="M42.0792 75.7426H43.7624V77.4257H42.0792V75.7426Z" fill="#E5E5E5"/>
<path d="M50.495 75.7426H52.1782V77.4257H50.495V75.7426Z" fill="#E5E5E5"/>
<path d="M58.9109 75.7426H60.5941V77.4257H58.9109V75.7426Z" fill="#E5E5E5"/>
<path d="M67.3267 75.7426H69.0099V77.4257H67.3267V75.7426Z" fill="#E5E5E5"/>
<path d="M75.7426 75.7426H77.4257V77.4257H75.7426V75.7426Z" fill="#E5E5E5"/>
<path d="M84.1584 75.7426H85.8416V77.4257H84.1584V75.7426Z" fill="#E5E5E5"/>
<path d="M92.5743 75.7426H94.2574V77.4257H92.5743V75.7426Z" fill="#E5E5E5"/>
<path d="M100.99 75.7426H102.673V77.4257H100.99V75.7426Z" fill="#E5E5E5"/>
<path d="M109.406 75.7426H111.089V77.4257H109.406V75.7426Z" fill="#E5E5E5"/>
<path d="M117.822 75.7426H119.505V77.4257H117.822V75.7426Z" fill="#E5E5E5"/>
<path d="M126.238 75.7426H127.921V77.4257H126.238V75.7426Z" fill="#E5E5E5"/>
<path d="M134.653 75.7426H136.337V77.4257H134.653V75.7426Z" fill="#E5E5E5"/>
<path d="M143.069 75.7426H144.752V77.4257H143.069V75.7426Z" fill="#E5E5E5"/>
<path d="M151.485 75.7426H153.168V77.4257H151.485V75.7426Z" fill="#E5E5E5"/>
<path d="M159.901 75.7426H161.584V77.4257H159.901V75.7426Z" fill="#E5E5E5"/>
<path d="M168.317 75.7426H170V77.4257H168.317V75.7426Z" fill="#E5E5E5"/>
<path d="M0 84.1584H1.68317V85.8416H0V84.1584Z" fill="#E5E5E5"/>
<path d="M8.41584 84.1584H10.099V85.8416H8.41584V84.1584Z" fill="#E5E5E5"/>
<path d="M16.8317 84.1584H18.5149V85.8416H16.8317V84.1584Z" fill="#E5E5E5"/>
<path d="M25.2475 84.1584H26.9307V85.8416H25.2475V84.1584Z" fill="#E5E5E5"/>
<path d="M33.6634 84.1584H35.3465V85.8416H33.6634V84.1584Z" fill="#E5E5E5"/>
<path d="M42.0792 84.1584H43.7624V85.8416H42.0792V84.1584Z" fill="#E5E5E5"/>
<path d="M50.495 84.1584H52.1782V85.8416H50.495V84.1584Z" fill="#E5E5E5"/>
<path d="M58.9109 84.1584H60.5941V85.8416H58.9109V84.1584Z" fill="#E5E5E5"/>
<path d="M67.3267 84.1584H69.0099V85.8416H67.3267V84.1584Z" fill="#E5E5E5"/>
<path d="M75.7426 84.1584H77.4257V85.8416H75.7426V84.1584Z" fill="#E5E5E5"/>
<path d="M84.1584 84.1584H85.8416V85.8416H84.1584V84.1584Z" fill="#E5E5E5"/>
<path d="M92.5743 84.1584H94.2574V85.8416H92.5743V84.1584Z" fill="#E5E5E5"/>
<path d="M100.99 84.1584H102.673V85.8416H100.99V84.1584Z" fill="#E5E5E5"/>
<path d="M109.406 84.1584H111.089V85.8416H109.406V84.1584Z" fill="#E5E5E5"/>
<path d="M117.822 84.1584H119.505V85.8416H117.822V84.1584Z" fill="#E5E5E5"/>
<path d="M126.238 84.1584H127.921V85.8416H126.238V84.1584Z" fill="#E5E5E5"/>
<path d="M134.653 84.1584H136.337V85.8416H134.653V84.1584Z" fill="#E5E5E5"/>
<path d="M143.069 84.1584H144.752V85.8416H143.069V84.1584Z" fill="#E5E5E5"/>
<path d="M151.485 84.1584H153.168V85.8416H151.485V84.1584Z" fill="#E5E5E5"/>
<path d="M159.901 84.1584H161.584V85.8416H159.901V84.1584Z" fill="#E5E5E5"/>
<path d="M168.317 84.1584H170V85.8416H168.317V84.1584Z" fill="#E5E5E5"/>
<path d="M0 92.5743H1.68317V94.2574H0V92.5743Z" fill="#E5E5E5"/>
<path d="M8.41584 92.5743H10.099V94.2574H8.41584V92.5743Z" fill="#E5E5E5"/>
<path d="M16.8317 92.5743H18.5149V94.2574H16.8317V92.5743Z" fill="#E5E5E5"/>
<path d="M25.2475 92.5743H26.9307V94.2574H25.2475V92.5743Z" fill="#E5E5E5"/>
<path d="M33.6634 92.5743H35.3465V94.2574H33.6634V92.5743Z" fill="#E5E5E5"/>
<path d="M42.0792 92.5743H43.7624V94.2574H42.0792V92.5743Z" fill="#E5E5E5"/>
<path d="M50.495 92.5743H52.1782V94.2574H50.495V92.5743Z" fill="#E5E5E5"/>
<path d="M58.9109 92.5743H60.5941V94.2574H58.9109V92.5743Z" fill="#E5E5E5"/>
<path d="M67.3267 92.5743H69.0099V94.2574H67.3267V92.5743Z" fill="#E5E5E5"/>
<path d="M75.7426 92.5743H77.4257V94.2574H75.7426V92.5743Z" fill="#E5E5E5"/>
<path d="M84.1584 92.5743H85.8416V94.2574H84.1584V92.5743Z" fill="#E5E5E5"/>
<path d="M92.5743 92.5743H94.2574V94.2574H92.5743V92.5743Z" fill="#E5E5E5"/>
<path d="M100.99 92.5743H102.673V94.2574H100.99V92.5743Z" fill="#E5E5E5"/>
<path d="M109.406 92.5743H111.089V94.2574H109.406V92.5743Z" fill="#E5E5E5"/>
<path d="M117.822 92.5743H119.505V94.2574H117.822V92.5743Z" fill="#E5E5E5"/>
<path d="M126.238 92.5743H127.921V94.2574H126.238V92.5743Z" fill="#E5E5E5"/>
<path d="M134.653 92.5743H136.337V94.2574H134.653V92.5743Z" fill="#E5E5E5"/>
<path d="M143.069 92.5743H144.752V94.2574H143.069V92.5743Z" fill="#E5E5E5"/>
<path d="M151.485 92.5743H153.168V94.2574H151.485V92.5743Z" fill="#E5E5E5"/>
<path d="M159.901 92.5743H161.584V94.2574H159.901V92.5743Z" fill="#E5E5E5"/>
<path d="M168.317 92.5743H170V94.2574H168.317V92.5743Z" fill="#E5E5E5"/>
<path d="M0 100.99H1.68317V102.673H0V100.99Z" fill="#E5E5E5"/>
<path d="M8.41584 100.99H10.099V102.673H8.41584V100.99Z" fill="#E5E5E5"/>
<path d="M16.8317 100.99H18.5149V102.673H16.8317V100.99Z" fill="#E5E5E5"/>
<path d="M25.2475 100.99H26.9307V102.673H25.2475V100.99Z" fill="#E5E5E5"/>
<path d="M33.6634 100.99H35.3465V102.673H33.6634V100.99Z" fill="#E5E5E5"/>
<path d="M42.0792 100.99H43.7624V102.673H42.0792V100.99Z" fill="#E5E5E5"/>
<path d="M50.495 100.99H52.1782V102.673H50.495V100.99Z" fill="#E5E5E5"/>
<path d="M58.9109 100.99H60.5941V102.673H58.9109V100.99Z" fill="#E5E5E5"/>
<path d="M67.3267 100.99H69.0099V102.673H67.3267V100.99Z" fill="#E5E5E5"/>
<path d="M75.7426 100.99H77.4257V102.673H75.7426V100.99Z" fill="#E5E5E5"/>
<path d="M84.1584 100.99H85.8416V102.673H84.1584V100.99Z" fill="#E5E5E5"/>
<path d="M92.5743 100.99H94.2574V102.673H92.5743V100.99Z" fill="#E5E5E5"/>
<path d="M100.99 100.99H102.673V102.673H100.99V100.99Z" fill="#E5E5E5"/>
<path d="M109.406 100.99H111.089V102.673H109.406V100.99Z" fill="#E5E5E5"/>
<path d="M117.822 100.99H119.505V102.673H117.822V100.99Z" fill="#E5E5E5"/>
<path d="M126.238 100.99H127.921V102.673H126.238V100.99Z" fill="#E5E5E5"/>
<path d="M134.653 100.99H136.337V102.673H134.653V100.99Z" fill="#E5E5E5"/>
<path d="M143.069 100.99H144.752V102.673H143.069V100.99Z" fill="#E5E5E5"/>
<path d="M151.485 100.99H153.168V102.673H151.485V100.99Z" fill="#E5E5E5"/>
<path d="M159.901 100.99H161.584V102.673H159.901V100.99Z" fill="#E5E5E5"/>
<path d="M168.317 100.99H170V102.673H168.317V100.99Z" fill="#E5E5E5"/>
<path d="M0 109.406H1.68317V111.089H0V109.406Z" fill="#E5E5E5"/>
<path d="M8.41584 109.406H10.099V111.089H8.41584V109.406Z" fill="#E5E5E5"/>
<path d="M16.8317 109.406H18.5149V111.089H16.8317V109.406Z" fill="#E5E5E5"/>
<path d="M25.2475 109.406H26.9307V111.089H25.2475V109.406Z" fill="#E5E5E5"/>
<path d="M33.6634 109.406H35.3465V111.089H33.6634V109.406Z" fill="#E5E5E5"/>
<path d="M42.0792 109.406H43.7624V111.089H42.0792V109.406Z" fill="#E5E5E5"/>
<path d="M50.495 109.406H52.1782V111.089H50.495V109.406Z" fill="#E5E5E5"/>
<path d="M58.9109 109.406H60.5941V111.089H58.9109V109.406Z" fill="#E5E5E5"/>
<path d="M67.3267 109.406H69.0099V111.089H67.3267V109.406Z" fill="#E5E5E5"/>
<path d="M75.7426 109.406H77.4257V111.089H75.7426V109.406Z" fill="#E5E5E5"/>
<path d="M84.1584 109.406H85.8416V111.089H84.1584V109.406Z" fill="#E5E5E5"/>
<path d="M92.5743 109.406H94.2574V111.089H92.5743V109.406Z" fill="#E5E5E5"/>
<path d="M100.99 109.406H102.673V111.089H100.99V109.406Z" fill="#E5E5E5"/>
<path d="M109.406 109.406H111.089V111.089H109.406V109.406Z" fill="#E5E5E5"/>
<path d="M117.822 109.406H119.505V111.089H117.822V109.406Z" fill="#E5E5E5"/>
<path d="M126.238 109.406H127.921V111.089H126.238V109.406Z" fill="#E5E5E5"/>
<path d="M134.653 109.406H136.337V111.089H134.653V109.406Z" fill="#E5E5E5"/>
<path d="M143.069 109.406H144.752V111.089H143.069V109.406Z" fill="#E5E5E5"/>
<path d="M151.485 109.406H153.168V111.089H151.485V109.406Z" fill="#E5E5E5"/>
<path d="M159.901 109.406H161.584V111.089H159.901V109.406Z" fill="#E5E5E5"/>
<path d="M168.317 109.406H170V111.089H168.317V109.406Z" fill="#E5E5E5"/>
<path d="M0 117.822H1.68317V119.505H0V117.822Z" fill="#E5E5E5"/>
<path d="M8.41584 117.822H10.099V119.505H8.41584V117.822Z" fill="#E5E5E5"/>
<path d="M16.8317 117.822H18.5149V119.505H16.8317V117.822Z" fill="#E5E5E5"/>
<path d="M25.2475 117.822H26.9307V119.505H25.2475V117.822Z" fill="#E5E5E5"/>
<path d="M33.6634 117.822H35.3465V119.505H33.6634V117.822Z" fill="#E5E5E5"/>
<path d="M42.0792 117.822H43.7624V119.505H42.0792V117.822Z" fill="#E5E5E5"/>
<path d="M50.495 117.822H52.1782V119.505H50.495V117.822Z" fill="#E5E5E5"/>
<path d="M58.9109 117.822H60.5941V119.505H58.9109V117.822Z" fill="#E5E5E5"/>
<path d="M67.3267 117.822H69.0099V119.505H67.3267V117.822Z" fill="#E5E5E5"/>
<path d="M75.7426 117.822H77.4257V119.505H75.7426V117.822Z" fill="#E5E5E5"/>
<path d="M84.1584 117.822H85.8416V119.505H84.1584V117.822Z" fill="#E5E5E5"/>
<path d="M92.5743 117.822H94.2574V119.505H92.5743V117.822Z" fill="#E5E5E5"/>
<path d="M100.99 117.822H102.673V119.505H100.99V117.822Z" fill="#E5E5E5"/>
<path d="M109.406 117.822H111.089V119.505H109.406V117.822Z" fill="#E5E5E5"/>
<path d="M117.822 117.822H119.505V119.505H117.822V117.822Z" fill="#E5E5E5"/>
<path d="M126.238 117.822H127.921V119.505H126.238V117.822Z" fill="#E5E5E5"/>
<path d="M134.653 117.822H136.337V119.505H134.653V117.822Z" fill="#E5E5E5"/>
<path d="M143.069 117.822H144.752V119.505H143.069V117.822Z" fill="#E5E5E5"/>
<path d="M151.485 117.822H153.168V119.505H151.485V117.822Z" fill="#E5E5E5"/>
<path d="M159.901 117.822H161.584V119.505H159.901V117.822Z" fill="#E5E5E5"/>
<path d="M168.317 117.822H170V119.505H168.317V117.822Z" fill="#E5E5E5"/>
<path d="M0 126.238H1.68317V127.921H0V126.238Z" fill="#E5E5E5"/>
<path d="M8.41584 126.238H10.099V127.921H8.41584V126.238Z" fill="#E5E5E5"/>
<path d="M16.8317 126.238H18.5149V127.921H16.8317V126.238Z" fill="#E5E5E5"/>
<path d="M25.2475 126.238H26.9307V127.921H25.2475V126.238Z" fill="#E5E5E5"/>
<path d="M33.6634 126.238H35.3465V127.921H33.6634V126.238Z" fill="#E5E5E5"/>
<path d="M42.0792 126.238H43.7624V127.921H42.0792V126.238Z" fill="#E5E5E5"/>
<path d="M50.495 126.238H52.1782V127.921H50.495V126.238Z" fill="#E5E5E5"/>
<path d="M58.9109 126.238H60.5941V127.921H58.9109V126.238Z" fill="#E5E5E5"/>
<path d="M67.3267 126.238H69.0099V127.921H67.3267V126.238Z" fill="#E5E5E5"/>
<path d="M75.7426 126.238H77.4257V127.921H75.7426V126.238Z" fill="#E5E5E5"/>
<path d="M84.1584 126.238H85.8416V127.921H84.1584V126.238Z" fill="#E5E5E5"/>
<path d="M92.5743 126.238H94.2574V127.921H92.5743V126.238Z" fill="#E5E5E5"/>
<path d="M100.99 126.238H102.673V127.921H100.99V126.238Z" fill="#E5E5E5"/>
<path d="M109.406 126.238H111.089V127.921H109.406V126.238Z" fill="#E5E5E5"/>
<path d="M117.822 126.238H119.505V127.921H117.822V126.238Z" fill="#E5E5E5"/>
<path d="M126.238 126.238H127.921V127.921H126.238V126.238Z" fill="#E5E5E5"/>
<path d="M134.653 126.238H136.337V127.921H134.653V126.238Z" fill="#E5E5E5"/>
<path d="M143.069 126.238H144.752V127.921H143.069V126.238Z" fill="#E5E5E5"/>
<path d="M151.485 126.238H153.168V127.921H151.485V126.238Z" fill="#E5E5E5"/>
<path d="M159.901 126.238H161.584V127.921H159.901V126.238Z" fill="#E5E5E5"/>
<path d="M168.317 126.238H170V127.921H168.317V126.238Z" fill="#E5E5E5"/>
<path d="M0 134.653H1.68317V136.337H0V134.653Z" fill="#E5E5E5"/>
<path d="M8.41584 134.653H10.099V136.337H8.41584V134.653Z" fill="#E5E5E5"/>
<path d="M16.8317 134.653H18.5149V136.337H16.8317V134.653Z" fill="#E5E5E5"/>
<path d="M25.2475 134.653H26.9307V136.337H25.2475V134.653Z" fill="#E5E5E5"/>
<path d="M33.6634 134.653H35.3465V136.337H33.6634V134.653Z" fill="#E5E5E5"/>
<path d="M42.0792 134.653H43.7624V136.337H42.0792V134.653Z" fill="#E5E5E5"/>
<path d="M50.495 134.653H52.1782V136.337H50.495V134.653Z" fill="#E5E5E5"/>
<path d="M58.9109 134.653H60.5941V136.337H58.9109V134.653Z" fill="#E5E5E5"/>
<path d="M67.3267 134.653H69.0099V136.337H67.3267V134.653Z" fill="#E5E5E5"/>
<path d="M75.7426 134.653H77.4257V136.337H75.7426V134.653Z" fill="#E5E5E5"/>
<path d="M84.1584 134.653H85.8416V136.337H84.1584V134.653Z" fill="#E5E5E5"/>
<path d="M92.5743 134.653H94.2574V136.337H92.5743V134.653Z" fill="#E5E5E5"/>
<path d="M100.99 134.653H102.673V136.337H100.99V134.653Z" fill="#E5E5E5"/>
<path d="M109.406 134.653H111.089V136.337H109.406V134.653Z" fill="#E5E5E5"/>
<path d="M117.822 134.653H119.505V136.337H117.822V134.653Z" fill="#E5E5E5"/>
<path d="M126.238 134.653H127.921V136.337H126.238V134.653Z" fill="#E5E5E5"/>
<path d="M134.653 134.653H136.337V136.337H134.653V134.653Z" fill="#E5E5E5"/>
<path d="M143.069 134.653H144.752V136.337H143.069V134.653Z" fill="#E5E5E5"/>
<path d="M151.485 134.653H153.168V136.337H151.485V134.653Z" fill="#E5E5E5"/>
<path d="M159.901 134.653H161.584V136.337H159.901V134.653Z" fill="#E5E5E5"/>
<path d="M168.317 134.653H170V136.337H168.317V134.653Z" fill="#E5E5E5"/>
<path d="M0 143.069H1.68317V144.752H0V143.069Z" fill="#E5E5E5"/>
<path d="M8.41584 143.069H10.099V144.752H8.41584V143.069Z" fill="#E5E5E5"/>
<path d="M16.8317 143.069H18.5149V144.752H16.8317V143.069Z" fill="#E5E5E5"/>
<path d="M25.2475 143.069H26.9307V144.752H25.2475V143.069Z" fill="#E5E5E5"/>
<path d="M33.6634 143.069H35.3465V144.752H33.6634V143.069Z" fill="#E5E5E5"/>
<path d="M42.0792 143.069H43.7624V144.752H42.0792V143.069Z" fill="#E5E5E5"/>
<path d="M50.495 143.069H52.1782V144.752H50.495V143.069Z" fill="#E5E5E5"/>
<path d="M58.9109 143.069H60.5941V144.752H58.9109V143.069Z" fill="#E5E5E5"/>
<path d="M67.3267 143.069H69.0099V144.752H67.3267V143.069Z" fill="#E5E5E5"/>
<path d="M75.7426 143.069H77.4257V144.752H75.7426V143.069Z" fill="#E5E5E5"/>
<path d="M84.1584 143.069H85.8416V144.752H84.1584V143.069Z" fill="#E5E5E5"/>
<path d="M92.5743 143.069H94.2574V144.752H92.5743V143.069Z" fill="#E5E5E5"/>
<path d="M100.99 143.069H102.673V144.752H100.99V143.069Z" fill="#E5E5E5"/>
<path d="M109.406 143.069H111.089V144.752H109.406V143.069Z" fill="#E5E5E5"/>
<path d="M117.822 143.069H119.505V144.752H117.822V143.069Z" fill="#E5E5E5"/>
<path d="M126.238 143.069H127.921V144.752H126.238V143.069Z" fill="#E5E5E5"/>
<path d="M134.653 143.069H136.337V144.752H134.653V143.069Z" fill="#E5E5E5"/>
<path d="M143.069 143.069H144.752V144.752H143.069V143.069Z" fill="#E5E5E5"/>
<path d="M151.485 143.069H153.168V144.752H151.485V143.069Z" fill="#E5E5E5"/>
<path d="M159.901 143.069H161.584V144.752H159.901V143.069Z" fill="#E5E5E5"/>
<path d="M168.317 143.069H170V144.752H168.317V143.069Z" fill="#E5E5E5"/>
<path d="M0 151.485H1.68317V153.168H0V151.485Z" fill="#E5E5E5"/>
<path d="M8.41584 151.485H10.099V153.168H8.41584V151.485Z" fill="#E5E5E5"/>
<path d="M16.8317 151.485H18.5149V153.168H16.8317V151.485Z" fill="#E5E5E5"/>
<path d="M25.2475 151.485H26.9307V153.168H25.2475V151.485Z" fill="#E5E5E5"/>
<path d="M33.6634 151.485H35.3465V153.168H33.6634V151.485Z" fill="#E5E5E5"/>
<path d="M42.0792 151.485H43.7624V153.168H42.0792V151.485Z" fill="#E5E5E5"/>
<path d="M50.495 151.485H52.1782V153.168H50.495V151.485Z" fill="#E5E5E5"/>
<path d="M58.9109 151.485H60.5941V153.168H58.9109V151.485Z" fill="#E5E5E5"/>
<path d="M67.3267 151.485H69.0099V153.168H67.3267V151.485Z" fill="#E5E5E5"/>
<path d="M75.7426 151.485H77.4257V153.168H75.7426V151.485Z" fill="#E5E5E5"/>
<path d="M84.1584 151.485H85.8416V153.168H84.1584V151.485Z" fill="#E5E5E5"/>
<path d="M92.5743 151.485H94.2574V153.168H92.5743V151.485Z" fill="#E5E5E5"/>
<path d="M100.99 151.485H102.673V153.168H100.99V151.485Z" fill="#E5E5E5"/>
<path d="M109.406 151.485H111.089V153.168H109.406V151.485Z" fill="#E5E5E5"/>
<path d="M117.822 151.485H119.505V153.168H117.822V151.485Z" fill="#E5E5E5"/>
<path d="M126.238 151.485H127.921V153.168H126.238V151.485Z" fill="#E5E5E5"/>
<path d="M134.653 151.485H136.337V153.168H134.653V151.485Z" fill="#E5E5E5"/>
<path d="M143.069 151.485H144.752V153.168H143.069V151.485Z" fill="#E5E5E5"/>
<path d="M151.485 151.485H153.168V153.168H151.485V151.485Z" fill="#E5E5E5"/>
<path d="M159.901 151.485H161.584V153.168H159.901V151.485Z" fill="#E5E5E5"/>
<path d="M168.317 151.485H170V153.168H168.317V151.485Z" fill="#E5E5E5"/>
<path d="M0 159.901H1.68317V161.584H0V159.901Z" fill="#E5E5E5"/>
<path d="M8.41584 159.901H10.099V161.584H8.41584V159.901Z" fill="#E5E5E5"/>
<path d="M16.8317 159.901H18.5149V161.584H16.8317V159.901Z" fill="#E5E5E5"/>
<path d="M25.2475 159.901H26.9307V161.584H25.2475V159.901Z" fill="#E5E5E5"/>
<path d="M33.6634 159.901H35.3465V161.584H33.6634V159.901Z" fill="#E5E5E5"/>
<path d="M42.0792 159.901H43.7624V161.584H42.0792V159.901Z" fill="#E5E5E5"/>
<path d="M50.495 159.901H52.1782V161.584H50.495V159.901Z" fill="#E5E5E5"/>
<path d="M58.9109 159.901H60.5941V161.584H58.9109V159.901Z" fill="#E5E5E5"/>
<path d="M67.3267 159.901H69.0099V161.584H67.3267V159.901Z" fill="#E5E5E5"/>
<path d="M75.7426 159.901H77.4257V161.584H75.7426V159.901Z" fill="#E5E5E5"/>
<path d="M84.1584 159.901H85.8416V161.584H84.1584V159.901Z" fill="#E5E5E5"/>
<path d="M92.5743 159.901H94.2574V161.584H92.5743V159.901Z" fill="#E5E5E5"/>
<path d="M100.99 159.901H102.673V161.584H100.99V159.901Z" fill="#E5E5E5"/>
<path d="M109.406 159.901H111.089V161.584H109.406V159.901Z" fill="#E5E5E5"/>
<path d="M117.822 159.901H119.505V161.584H117.822V159.901Z" fill="#E5E5E5"/>
<path d="M126.238 159.901H127.921V161.584H126.238V159.901Z" fill="#E5E5E5"/>
<path d="M134.653 159.901H136.337V161.584H134.653V159.901Z" fill="#E5E5E5"/>
<path d="M143.069 159.901H144.752V161.584H143.069V159.901Z" fill="#E5E5E5"/>
<path d="M151.485 159.901H153.168V161.584H151.485V159.901Z" fill="#E5E5E5"/>
<path d="M159.901 159.901H161.584V161.584H159.901V159.901Z" fill="#E5E5E5"/>
<path d="M168.317 159.901H170V161.584H168.317V159.901Z" fill="#E5E5E5"/>
<path d="M0 168.317H1.68317V170H0V168.317Z" fill="#E5E5E5"/>
<path d="M8.41584 168.317H10.099V170H8.41584V168.317Z" fill="#E5E5E5"/>
<path d="M16.8317 168.317H18.5149V170H16.8317V168.317Z" fill="#E5E5E5"/>
<path d="M25.2475 168.317H26.9307V170H25.2475V168.317Z" fill="#E5E5E5"/>
<path d="M33.6634 168.317H35.3465V170H33.6634V168.317Z" fill="#E5E5E5"/>
<path d="M42.0792 168.317H43.7624V170H42.0792V168.317Z" fill="#E5E5E5"/>
<path d="M50.495 168.317H52.1782V170H50.495V168.317Z" fill="#E5E5E5"/>
<path d="M58.9109 168.317H60.5941V170H58.9109V168.317Z" fill="#E5E5E5"/>
<path d="M67.3267 168.317H69.0099V170H67.3267V168.317Z" fill="#E5E5E5"/>
<path d="M75.7426 168.317H77.4257V170H75.7426V168.317Z" fill="#E5E5E5"/>
<path d="M84.1584 168.317H85.8416V170H84.1584V168.317Z" fill="#E5E5E5"/>
<path d="M92.5743 168.317H94.2574V170H92.5743V168.317Z" fill="#E5E5E5"/>
<path d="M100.99 168.317H102.673V170H100.99V168.317Z" fill="#E5E5E5"/>
<path d="M109.406 168.317H111.089V170H109.406V168.317Z" fill="#E5E5E5"/>
<path d="M117.822 168.317H119.505V170H117.822V168.317Z" fill="#E5E5E5"/>
<path d="M126.238 168.317H127.921V170H126.238V168.317Z" fill="#E5E5E5"/>
<path d="M134.653 168.317H136.337V170H134.653V168.317Z" fill="#E5E5E5"/>
<path d="M143.069 168.317H144.752V170H143.069V168.317Z" fill="#E5E5E5"/>
<path d="M151.485 168.317H153.168V170H151.485V168.317Z" fill="#E5E5E5"/>
<path d="M159.901 168.317H161.584V170H159.901V168.317Z" fill="#E5E5E5"/>
<path d="M168.317 168.317H170V170H168.317V168.317Z" fill="#E5E5E5"/>
</svg>
