<svg width="108" height="388" viewBox="0 0 108 388" fill="none" xmlns="http://www.w3.org/2000/svg">
<path d="M-108 0H-105.861V3.84158H-108V0Z" fill="#E5E5E5"/>
<path d="M-97.3069 0H-95.1683V3.84158H-97.3069V0Z" fill="#E5E5E5"/>
<path d="M-86.6139 0H-84.4752V3.84158H-86.6139V0Z" fill="#E5E5E5"/>
<path d="M-75.9208 0H-73.7822V3.84158H-75.9208V0Z" fill="#E5E5E5"/>
<path d="M-65.2277 0H-63.0891V3.84158H-65.2277V0Z" fill="#E5E5E5"/>
<path d="M-54.5347 0H-52.396V3.84158H-54.5347V0Z" fill="#E5E5E5"/>
<path d="M-43.8416 0H-41.703V3.84158H-43.8416V0Z" fill="#E5E5E5"/>
<path d="M-33.1485 0H-31.0099V3.84158H-33.1485V0Z" fill="#E5E5E5"/>
<path d="M-22.4554 0H-20.3168V3.84158H-22.4554V0Z" fill="#E5E5E5"/>
<path d="M-11.7624 0H-9.62376V3.84158H-11.7624V0Z" fill="#E5E5E5"/>
<path d="M-1.06931 0H1.06931V3.84158H-1.06931V0Z" fill="#E5E5E5"/>
<path d="M9.62376 0H11.7624V3.84158H9.62376V0Z" fill="#E5E5E5"/>
<path d="M20.3168 0H22.4554V3.84158H20.3168V0Z" fill="#E5E5E5"/>
<path d="M31.0099 0H33.1485V3.84158H31.0099V0Z" fill="#E5E5E5"/>
<path d="M41.703 0H43.8416V3.84158H41.703V0Z" fill="#E5E5E5"/>
<path d="M52.396 0H54.5347V3.84158H52.396V0Z" fill="#E5E5E5"/>
<path d="M63.0891 0H65.2277V3.84158H63.0891V0Z" fill="#E5E5E5"/>
<path d="M73.7822 0H75.9208V3.84158H73.7822V0Z" fill="#E5E5E5"/>
<path d="M84.4753 0H86.6139V3.84158H84.4753V0Z" fill="#E5E5E5"/>
<path d="M95.1683 0H97.3069V3.84158H95.1683V0Z" fill="#E5E5E5"/>
<path d="M105.861 0H108V3.84158H105.861V0Z" fill="#E5E5E5"/>
<path d="M-108 19.2079H-105.861V23.0495H-108V19.2079Z" fill="#E5E5E5"/>
<path d="M-97.3069 19.2079H-95.1683V23.0495H-97.3069V19.2079Z" fill="#E5E5E5"/>
<path d="M-86.6139 19.2079H-84.4752V23.0495H-86.6139V19.2079Z" fill="#E5E5E5"/>
<path d="M-75.9208 19.2079H-73.7822V23.0495H-75.9208V19.2079Z" fill="#E5E5E5"/>
<path d="M-65.2277 19.2079H-63.0891V23.0495H-65.2277V19.2079Z" fill="#E5E5E5"/>
<path d="M-54.5347 19.2079H-52.396V23.0495H-54.5347V19.2079Z" fill="#E5E5E5"/>
<path d="M-43.8416 19.2079H-41.703V23.0495H-43.8416V19.2079Z" fill="#E5E5E5"/>
<path d="M-33.1485 19.2079H-31.0099V23.0495H-33.1485V19.2079Z" fill="#E5E5E5"/>
<path d="M-22.4554 19.2079H-20.3168V23.0495H-22.4554V19.2079Z" fill="#E5E5E5"/>
<path d="M-11.7624 19.2079H-9.62376V23.0495H-11.7624V19.2079Z" fill="#E5E5E5"/>
<path d="M-1.06931 19.2079H1.06931V23.0495H-1.06931V19.2079Z" fill="#E5E5E5"/>
<path d="M9.62376 19.2079H11.7624V23.0495H9.62376V19.2079Z" fill="#E5E5E5"/>
<path d="M20.3168 19.2079H22.4554V23.0495H20.3168V19.2079Z" fill="#E5E5E5"/>
<path d="M31.0099 19.2079H33.1485V23.0495H31.0099V19.2079Z" fill="#E5E5E5"/>
<path d="M41.703 19.2079H43.8416V23.0495H41.703V19.2079Z" fill="#E5E5E5"/>
<path d="M52.396 19.2079H54.5347V23.0495H52.396V19.2079Z" fill="#E5E5E5"/>
<path d="M63.0891 19.2079H65.2277V23.0495H63.0891V19.2079Z" fill="#E5E5E5"/>
<path d="M73.7822 19.2079H75.9208V23.0495H73.7822V19.2079Z" fill="#E5E5E5"/>
<path d="M84.4753 19.2079H86.6139V23.0495H84.4753V19.2079Z" fill="#E5E5E5"/>
<path d="M95.1683 19.2079H97.3069V23.0495H95.1683V19.2079Z" fill="#E5E5E5"/>
<path d="M105.861 19.2079H108V23.0495H105.861V19.2079Z" fill="#E5E5E5"/>
<path d="M-108 38.4158H-105.861V42.2574H-108V38.4158Z" fill="#E5E5E5"/>
<path d="M-97.3069 38.4158H-95.1683V42.2574H-97.3069V38.4158Z" fill="#E5E5E5"/>
<path d="M-86.6139 38.4158H-84.4752V42.2574H-86.6139V38.4158Z" fill="#E5E5E5"/>
<path d="M-75.9208 38.4158H-73.7822V42.2574H-75.9208V38.4158Z" fill="#E5E5E5"/>
<path d="M-65.2277 38.4158H-63.0891V42.2574H-65.2277V38.4158Z" fill="#E5E5E5"/>
<path d="M-54.5347 38.4158H-52.396V42.2574H-54.5347V38.4158Z" fill="#E5E5E5"/>
<path d="M-43.8416 38.4158H-41.703V42.2574H-43.8416V38.4158Z" fill="#E5E5E5"/>
<path d="M-33.1485 38.4158H-31.0099V42.2574H-33.1485V38.4158Z" fill="#E5E5E5"/>
<path d="M-22.4554 38.4158H-20.3168V42.2574H-22.4554V38.4158Z" fill="#E5E5E5"/>
<path d="M-11.7624 38.4158H-9.62376V42.2574H-11.7624V38.4158Z" fill="#E5E5E5"/>
<path d="M-1.06931 38.4158H1.06931V42.2574H-1.06931V38.4158Z" fill="#E5E5E5"/>
<path d="M9.62376 38.4158H11.7624V42.2574H9.62376V38.4158Z" fill="#E5E5E5"/>
<path d="M20.3168 38.4158H22.4554V42.2574H20.3168V38.4158Z" fill="#E5E5E5"/>
<path d="M31.0099 38.4158H33.1485V42.2574H31.0099V38.4158Z" fill="#E5E5E5"/>
<path d="M41.703 38.4158H43.8416V42.2574H41.703V38.4158Z" fill="#E5E5E5"/>
<path d="M52.396 38.4158H54.5347V42.2574H52.396V38.4158Z" fill="#E5E5E5"/>
<path d="M63.0891 38.4158H65.2277V42.2574H63.0891V38.4158Z" fill="#E5E5E5"/>
<path d="M73.7822 38.4158H75.9208V42.2574H73.7822V38.4158Z" fill="#E5E5E5"/>
<path d="M84.4753 38.4158H86.6139V42.2574H84.4753V38.4158Z" fill="#E5E5E5"/>
<path d="M95.1683 38.4158H97.3069V42.2574H95.1683V38.4158Z" fill="#E5E5E5"/>
<path d="M105.861 38.4158H108V42.2574H105.861V38.4158Z" fill="#E5E5E5"/>
<path d="M-108 57.6238H-105.861V61.4653H-108V57.6238Z" fill="#E5E5E5"/>
<path d="M-97.3069 57.6238H-95.1683V61.4653H-97.3069V57.6238Z" fill="#E5E5E5"/>
<path d="M-86.6139 57.6238H-84.4752V61.4653H-86.6139V57.6238Z" fill="#E5E5E5"/>
<path d="M-75.9208 57.6238H-73.7822V61.4653H-75.9208V57.6238Z" fill="#E5E5E5"/>
<path d="M-65.2277 57.6238H-63.0891V61.4653H-65.2277V57.6238Z" fill="#E5E5E5"/>
<path d="M-54.5347 57.6238H-52.396V61.4653H-54.5347V57.6238Z" fill="#E5E5E5"/>
<path d="M-43.8416 57.6238H-41.703V61.4653H-43.8416V57.6238Z" fill="#E5E5E5"/>
<path d="M-33.1485 57.6238H-31.0099V61.4653H-33.1485V57.6238Z" fill="#E5E5E5"/>
<path d="M-22.4554 57.6238H-20.3168V61.4653H-22.4554V57.6238Z" fill="#E5E5E5"/>
<path d="M-11.7624 57.6238H-9.62376V61.4653H-11.7624V57.6238Z" fill="#E5E5E5"/>
<path d="M-1.06931 57.6238H1.06931V61.4653H-1.06931V57.6238Z" fill="#E5E5E5"/>
<path d="M9.62376 57.6238H11.7624V61.4653H9.62376V57.6238Z" fill="#E5E5E5"/>
<path d="M20.3168 57.6238H22.4554V61.4653H20.3168V57.6238Z" fill="#E5E5E5"/>
<path d="M31.0099 57.6238H33.1485V61.4653H31.0099V57.6238Z" fill="#E5E5E5"/>
<path d="M41.703 57.6238H43.8416V61.4653H41.703V57.6238Z" fill="#E5E5E5"/>
<path d="M52.396 57.6238H54.5347V61.4653H52.396V57.6238Z" fill="#E5E5E5"/>
<path d="M63.0891 57.6238H65.2277V61.4653H63.0891V57.6238Z" fill="#E5E5E5"/>
<path d="M73.7822 57.6238H75.9208V61.4653H73.7822V57.6238Z" fill="#E5E5E5"/>
<path d="M84.4753 57.6238H86.6139V61.4653H84.4753V57.6238Z" fill="#E5E5E5"/>
<path d="M95.1683 57.6238H97.3069V61.4653H95.1683V57.6238Z" fill="#E5E5E5"/>
<path d="M105.861 57.6238H108V61.4653H105.861V57.6238Z" fill="#E5E5E5"/>
<path d="M-108 76.8317H-105.861V80.6733H-108V76.8317Z" fill="#E5E5E5"/>
<path d="M-97.3069 76.8317H-95.1683V80.6733H-97.3069V76.8317Z" fill="#E5E5E5"/>
<path d="M-86.6139 76.8317H-84.4752V80.6733H-86.6139V76.8317Z" fill="#E5E5E5"/>
<path d="M-75.9208 76.8317H-73.7822V80.6733H-75.9208V76.8317Z" fill="#E5E5E5"/>
<path d="M-65.2277 76.8317H-63.0891V80.6733H-65.2277V76.8317Z" fill="#E5E5E5"/>
<path d="M-54.5347 76.8317H-52.396V80.6733H-54.5347V76.8317Z" fill="#E5E5E5"/>
<path d="M-43.8416 76.8317H-41.703V80.6733H-43.8416V76.8317Z" fill="#E5E5E5"/>
<path d="M-33.1485 76.8317H-31.0099V80.6733H-33.1485V76.8317Z" fill="#E5E5E5"/>
<path d="M-22.4554 76.8317H-20.3168V80.6733H-22.4554V76.8317Z" fill="#E5E5E5"/>
<path d="M-11.7624 76.8317H-9.62376V80.6733H-11.7624V76.8317Z" fill="#E5E5E5"/>
<path d="M-1.06931 76.8317H1.06931V80.6733H-1.06931V76.8317Z" fill="#E5E5E5"/>
<path d="M9.62376 76.8317H11.7624V80.6733H9.62376V76.8317Z" fill="#E5E5E5"/>
<path d="M20.3168 76.8317H22.4554V80.6733H20.3168V76.8317Z" fill="#E5E5E5"/>
<path d="M31.0099 76.8317H33.1485V80.6733H31.0099V76.8317Z" fill="#E5E5E5"/>
<path d="M41.703 76.8317H43.8416V80.6733H41.703V76.8317Z" fill="#E5E5E5"/>
<path d="M52.396 76.8317H54.5347V80.6733H52.396V76.8317Z" fill="#E5E5E5"/>
<path d="M63.0891 76.8317H65.2277V80.6733H63.0891V76.8317Z" fill="#E5E5E5"/>
<path d="M73.7822 76.8317H75.9208V80.6733H73.7822V76.8317Z" fill="#E5E5E5"/>
<path d="M84.4753 76.8317H86.6139V80.6733H84.4753V76.8317Z" fill="#E5E5E5"/>
<path d="M95.1683 76.8317H97.3069V80.6733H95.1683V76.8317Z" fill="#E5E5E5"/>
<path d="M105.861 76.8317H108V80.6733H105.861V76.8317Z" fill="#E5E5E5"/>
<path d="M-108 96.0396H-105.861V99.8812H-108V96.0396Z" fill="#E5E5E5"/>
<path d="M-97.3069 96.0396H-95.1683V99.8812H-97.3069V96.0396Z" fill="#E5E5E5"/>
<path d="M-86.6139 96.0396H-84.4752V99.8812H-86.6139V96.0396Z" fill="#E5E5E5"/>
<path d="M-75.9208 96.0396H-73.7822V99.8812H-75.9208V96.0396Z" fill="#E5E5E5"/>
<path d="M-65.2277 96.0396H-63.0891V99.8812H-65.2277V96.0396Z" fill="#E5E5E5"/>
<path d="M-54.5347 96.0396H-52.396V99.8812H-54.5347V96.0396Z" fill="#E5E5E5"/>
<path d="M-43.8416 96.0396H-41.703V99.8812H-43.8416V96.0396Z" fill="#E5E5E5"/>
<path d="M-33.1485 96.0396H-31.0099V99.8812H-33.1485V96.0396Z" fill="#E5E5E5"/>
<path d="M-22.4554 96.0396H-20.3168V99.8812H-22.4554V96.0396Z" fill="#E5E5E5"/>
<path d="M-11.7624 96.0396H-9.62376V99.8812H-11.7624V96.0396Z" fill="#E5E5E5"/>
<path d="M-1.06931 96.0396H1.06931V99.8812H-1.06931V96.0396Z" fill="#E5E5E5"/>
<path d="M9.62376 96.0396H11.7624V99.8812H9.62376V96.0396Z" fill="#E5E5E5"/>
<path d="M20.3168 96.0396H22.4554V99.8812H20.3168V96.0396Z" fill="#E5E5E5"/>
<path d="M31.0099 96.0396H33.1485V99.8812H31.0099V96.0396Z" fill="#E5E5E5"/>
<path d="M41.703 96.0396H43.8416V99.8812H41.703V96.0396Z" fill="#E5E5E5"/>
<path d="M52.396 96.0396H54.5347V99.8812H52.396V96.0396Z" fill="#E5E5E5"/>
<path d="M63.0891 96.0396H65.2277V99.8812H63.0891V96.0396Z" fill="#E5E5E5"/>
<path d="M73.7822 96.0396H75.9208V99.8812H73.7822V96.0396Z" fill="#E5E5E5"/>
<path d="M84.4753 96.0396H86.6139V99.8812H84.4753V96.0396Z" fill="#E5E5E5"/>
<path d="M95.1683 96.0396H97.3069V99.8812H95.1683V96.0396Z" fill="#E5E5E5"/>
<path d="M105.861 96.0396H108V99.8812H105.861V96.0396Z" fill="#E5E5E5"/>
<path d="M-108 115.248H-105.861V119.089H-108V115.248Z" fill="#E5E5E5"/>
<path d="M-97.3069 115.248H-95.1683V119.089H-97.3069V115.248Z" fill="#E5E5E5"/>
<path d="M-86.6139 115.248H-84.4752V119.089H-86.6139V115.248Z" fill="#E5E5E5"/>
<path d="M-75.9208 115.248H-73.7822V119.089H-75.9208V115.248Z" fill="#E5E5E5"/>
<path d="M-65.2277 115.248H-63.0891V119.089H-65.2277V115.248Z" fill="#E5E5E5"/>
<path d="M-54.5347 115.248H-52.396V119.089H-54.5347V115.248Z" fill="#E5E5E5"/>
<path d="M-43.8416 115.248H-41.703V119.089H-43.8416V115.248Z" fill="#E5E5E5"/>
<path d="M-33.1485 115.248H-31.0099V119.089H-33.1485V115.248Z" fill="#E5E5E5"/>
<path d="M-22.4554 115.248H-20.3168V119.089H-22.4554V115.248Z" fill="#E5E5E5"/>
<path d="M-11.7624 115.248H-9.62376V119.089H-11.7624V115.248Z" fill="#E5E5E5"/>
<path d="M-1.06931 115.248H1.06931V119.089H-1.06931V115.248Z" fill="#E5E5E5"/>
<path d="M9.62376 115.248H11.7624V119.089H9.62376V115.248Z" fill="#E5E5E5"/>
<path d="M20.3168 115.248H22.4554V119.089H20.3168V115.248Z" fill="#E5E5E5"/>
<path d="M31.0099 115.248H33.1485V119.089H31.0099V115.248Z" fill="#E5E5E5"/>
<path d="M41.703 115.248H43.8416V119.089H41.703V115.248Z" fill="#E5E5E5"/>
<path d="M52.396 115.248H54.5347V119.089H52.396V115.248Z" fill="#E5E5E5"/>
<path d="M63.0891 115.248H65.2277V119.089H63.0891V115.248Z" fill="#E5E5E5"/>
<path d="M73.7822 115.248H75.9208V119.089H73.7822V115.248Z" fill="#E5E5E5"/>
<path d="M84.4753 115.248H86.6139V119.089H84.4753V115.248Z" fill="#E5E5E5"/>
<path d="M95.1683 115.248H97.3069V119.089H95.1683V115.248Z" fill="#E5E5E5"/>
<path d="M105.861 115.248H108V119.089H105.861V115.248Z" fill="#E5E5E5"/>
<path d="M-108 134.455H-105.861V138.297H-108V134.455Z" fill="#E5E5E5"/>
<path d="M-97.3069 134.455H-95.1683V138.297H-97.3069V134.455Z" fill="#E5E5E5"/>
<path d="M-86.6139 134.455H-84.4752V138.297H-86.6139V134.455Z" fill="#E5E5E5"/>
<path d="M-75.9208 134.455H-73.7822V138.297H-75.9208V134.455Z" fill="#E5E5E5"/>
<path d="M-65.2277 134.455H-63.0891V138.297H-65.2277V134.455Z" fill="#E5E5E5"/>
<path d="M-54.5347 134.455H-52.396V138.297H-54.5347V134.455Z" fill="#E5E5E5"/>
<path d="M-43.8416 134.455H-41.703V138.297H-43.8416V134.455Z" fill="#E5E5E5"/>
<path d="M-33.1485 134.455H-31.0099V138.297H-33.1485V134.455Z" fill="#E5E5E5"/>
<path d="M-22.4554 134.455H-20.3168V138.297H-22.4554V134.455Z" fill="#E5E5E5"/>
<path d="M-11.7624 134.455H-9.62376V138.297H-11.7624V134.455Z" fill="#E5E5E5"/>
<path d="M-1.06931 134.455H1.06931V138.297H-1.06931V134.455Z" fill="#E5E5E5"/>
<path d="M9.62376 134.455H11.7624V138.297H9.62376V134.455Z" fill="#E5E5E5"/>
<path d="M20.3168 134.455H22.4554V138.297H20.3168V134.455Z" fill="#E5E5E5"/>
<path d="M31.0099 134.455H33.1485V138.297H31.0099V134.455Z" fill="#E5E5E5"/>
<path d="M41.703 134.455H43.8416V138.297H41.703V134.455Z" fill="#E5E5E5"/>
<path d="M52.396 134.455H54.5347V138.297H52.396V134.455Z" fill="#E5E5E5"/>
<path d="M63.0891 134.455H65.2277V138.297H63.0891V134.455Z" fill="#E5E5E5"/>
<path d="M73.7822 134.455H75.9208V138.297H73.7822V134.455Z" fill="#E5E5E5"/>
<path d="M84.4753 134.455H86.6139V138.297H84.4753V134.455Z" fill="#E5E5E5"/>
<path d="M95.1683 134.455H97.3069V138.297H95.1683V134.455Z" fill="#E5E5E5"/>
<path d="M105.861 134.455H108V138.297H105.861V134.455Z" fill="#E5E5E5"/>
<path d="M-108 153.663H-105.861V157.505H-108V153.663Z" fill="#E5E5E5"/>
<path d="M-97.3069 153.663H-95.1683V157.505H-97.3069V153.663Z" fill="#E5E5E5"/>
<path d="M-86.6139 153.663H-84.4752V157.505H-86.6139V153.663Z" fill="#E5E5E5"/>
<path d="M-75.9208 153.663H-73.7822V157.505H-75.9208V153.663Z" fill="#E5E5E5"/>
<path d="M-65.2277 153.663H-63.0891V157.505H-65.2277V153.663Z" fill="#E5E5E5"/>
<path d="M-54.5347 153.663H-52.396V157.505H-54.5347V153.663Z" fill="#E5E5E5"/>
<path d="M-43.8416 153.663H-41.703V157.505H-43.8416V153.663Z" fill="#E5E5E5"/>
<path d="M-33.1485 153.663H-31.0099V157.505H-33.1485V153.663Z" fill="#E5E5E5"/>
<path d="M-22.4554 153.663H-20.3168V157.505H-22.4554V153.663Z" fill="#E5E5E5"/>
<path d="M-11.7624 153.663H-9.62376V157.505H-11.7624V153.663Z" fill="#E5E5E5"/>
<path d="M-1.06931 153.663H1.06931V157.505H-1.06931V153.663Z" fill="#E5E5E5"/>
<path d="M9.62376 153.663H11.7624V157.505H9.62376V153.663Z" fill="#E5E5E5"/>
<path d="M20.3168 153.663H22.4554V157.505H20.3168V153.663Z" fill="#E5E5E5"/>
<path d="M31.0099 153.663H33.1485V157.505H31.0099V153.663Z" fill="#E5E5E5"/>
<path d="M41.703 153.663H43.8416V157.505H41.703V153.663Z" fill="#E5E5E5"/>
<path d="M52.396 153.663H54.5347V157.505H52.396V153.663Z" fill="#E5E5E5"/>
<path d="M63.0891 153.663H65.2277V157.505H63.0891V153.663Z" fill="#E5E5E5"/>
<path d="M73.7822 153.663H75.9208V157.505H73.7822V153.663Z" fill="#E5E5E5"/>
<path d="M84.4753 153.663H86.6139V157.505H84.4753V153.663Z" fill="#E5E5E5"/>
<path d="M95.1683 153.663H97.3069V157.505H95.1683V153.663Z" fill="#E5E5E5"/>
<path d="M105.861 153.663H108V157.505H105.861V153.663Z" fill="#E5E5E5"/>
<path d="M-108 172.871H-105.861V176.713H-108V172.871Z" fill="#E5E5E5"/>
<path d="M-97.3069 172.871H-95.1683V176.713H-97.3069V172.871Z" fill="#E5E5E5"/>
<path d="M-86.6139 172.871H-84.4752V176.713H-86.6139V172.871Z" fill="#E5E5E5"/>
<path d="M-75.9208 172.871H-73.7822V176.713H-75.9208V172.871Z" fill="#E5E5E5"/>
<path d="M-65.2277 172.871H-63.0891V176.713H-65.2277V172.871Z" fill="#E5E5E5"/>
<path d="M-54.5347 172.871H-52.396V176.713H-54.5347V172.871Z" fill="#E5E5E5"/>
<path d="M-43.8416 172.871H-41.703V176.713H-43.8416V172.871Z" fill="#E5E5E5"/>
<path d="M-33.1485 172.871H-31.0099V176.713H-33.1485V172.871Z" fill="#E5E5E5"/>
<path d="M-22.4554 172.871H-20.3168V176.713H-22.4554V172.871Z" fill="#E5E5E5"/>
<path d="M-11.7624 172.871H-9.62376V176.713H-11.7624V172.871Z" fill="#E5E5E5"/>
<path d="M-1.06931 172.871H1.06931V176.713H-1.06931V172.871Z" fill="#E5E5E5"/>
<path d="M9.62376 172.871H11.7624V176.713H9.62376V172.871Z" fill="#E5E5E5"/>
<path d="M20.3168 172.871H22.4554V176.713H20.3168V172.871Z" fill="#E5E5E5"/>
<path d="M31.0099 172.871H33.1485V176.713H31.0099V172.871Z" fill="#E5E5E5"/>
<path d="M41.703 172.871H43.8416V176.713H41.703V172.871Z" fill="#E5E5E5"/>
<path d="M52.396 172.871H54.5347V176.713H52.396V172.871Z" fill="#E5E5E5"/>
<path d="M63.0891 172.871H65.2277V176.713H63.0891V172.871Z" fill="#E5E5E5"/>
<path d="M73.7822 172.871H75.9208V176.713H73.7822V172.871Z" fill="#E5E5E5"/>
<path d="M84.4753 172.871H86.6139V176.713H84.4753V172.871Z" fill="#E5E5E5"/>
<path d="M95.1683 172.871H97.3069V176.713H95.1683V172.871Z" fill="#E5E5E5"/>
<path d="M105.861 172.871H108V176.713H105.861V172.871Z" fill="#E5E5E5"/>
<path d="M-108 192.079H-105.861V195.921H-108V192.079Z" fill="#E5E5E5"/>
<path d="M-97.3069 192.079H-95.1683V195.921H-97.3069V192.079Z" fill="#E5E5E5"/>
<path d="M-86.6139 192.079H-84.4752V195.921H-86.6139V192.079Z" fill="#E5E5E5"/>
<path d="M-75.9208 192.079H-73.7822V195.921H-75.9208V192.079Z" fill="#E5E5E5"/>
<path d="M-65.2277 192.079H-63.0891V195.921H-65.2277V192.079Z" fill="#E5E5E5"/>
<path d="M-54.5347 192.079H-52.396V195.921H-54.5347V192.079Z" fill="#E5E5E5"/>
<path d="M-43.8416 192.079H-41.703V195.921H-43.8416V192.079Z" fill="#E5E5E5"/>
<path d="M-33.1485 192.079H-31.0099V195.921H-33.1485V192.079Z" fill="#E5E5E5"/>
<path d="M-22.4554 192.079H-20.3168V195.921H-22.4554V192.079Z" fill="#E5E5E5"/>
<path d="M-11.7624 192.079H-9.62376V195.921H-11.7624V192.079Z" fill="#E5E5E5"/>
<path d="M-1.06931 192.079H1.06931V195.921H-1.06931V192.079Z" fill="#E5E5E5"/>
<path d="M9.62376 192.079H11.7624V195.921H9.62376V192.079Z" fill="#E5E5E5"/>
<path d="M20.3168 192.079H22.4554V195.921H20.3168V192.079Z" fill="#E5E5E5"/>
<path d="M31.0099 192.079H33.1485V195.921H31.0099V192.079Z" fill="#E5E5E5"/>
<path d="M41.703 192.079H43.8416V195.921H41.703V192.079Z" fill="#E5E5E5"/>
<path d="M52.396 192.079H54.5347V195.921H52.396V192.079Z" fill="#E5E5E5"/>
<path d="M63.0891 192.079H65.2277V195.921H63.0891V192.079Z" fill="#E5E5E5"/>
<path d="M73.7822 192.079H75.9208V195.921H73.7822V192.079Z" fill="#E5E5E5"/>
<path d="M84.4753 192.079H86.6139V195.921H84.4753V192.079Z" fill="#E5E5E5"/>
<path d="M95.1683 192.079H97.3069V195.921H95.1683V192.079Z" fill="#E5E5E5"/>
<path d="M105.861 192.079H108V195.921H105.861V192.079Z" fill="#E5E5E5"/>
<path d="M-108 211.287H-105.861V215.129H-108V211.287Z" fill="#E5E5E5"/>
<path d="M-97.3069 211.287H-95.1683V215.129H-97.3069V211.287Z" fill="#E5E5E5"/>
<path d="M-86.6139 211.287H-84.4752V215.129H-86.6139V211.287Z" fill="#E5E5E5"/>
<path d="M-75.9208 211.287H-73.7822V215.129H-75.9208V211.287Z" fill="#E5E5E5"/>
<path d="M-65.2277 211.287H-63.0891V215.129H-65.2277V211.287Z" fill="#E5E5E5"/>
<path d="M-54.5347 211.287H-52.396V215.129H-54.5347V211.287Z" fill="#E5E5E5"/>
<path d="M-43.8416 211.287H-41.703V215.129H-43.8416V211.287Z" fill="#E5E5E5"/>
<path d="M-33.1485 211.287H-31.0099V215.129H-33.1485V211.287Z" fill="#E5E5E5"/>
<path d="M-22.4554 211.287H-20.3168V215.129H-22.4554V211.287Z" fill="#E5E5E5"/>
<path d="M-11.7624 211.287H-9.62376V215.129H-11.7624V211.287Z" fill="#E5E5E5"/>
<path d="M-1.06931 211.287H1.06931V215.129H-1.06931V211.287Z" fill="#E5E5E5"/>
<path d="M9.62376 211.287H11.7624V215.129H9.62376V211.287Z" fill="#E5E5E5"/>
<path d="M20.3168 211.287H22.4554V215.129H20.3168V211.287Z" fill="#E5E5E5"/>
<path d="M31.0099 211.287H33.1485V215.129H31.0099V211.287Z" fill="#E5E5E5"/>
<path d="M41.703 211.287H43.8416V215.129H41.703V211.287Z" fill="#E5E5E5"/>
<path d="M52.396 211.287H54.5347V215.129H52.396V211.287Z" fill="#E5E5E5"/>
<path d="M63.0891 211.287H65.2277V215.129H63.0891V211.287Z" fill="#E5E5E5"/>
<path d="M73.7822 211.287H75.9208V215.129H73.7822V211.287Z" fill="#E5E5E5"/>
<path d="M84.4753 211.287H86.6139V215.129H84.4753V211.287Z" fill="#E5E5E5"/>
<path d="M95.1683 211.287H97.3069V215.129H95.1683V211.287Z" fill="#E5E5E5"/>
<path d="M105.861 211.287H108V215.129H105.861V211.287Z" fill="#E5E5E5"/>
<path d="M-108 230.495H-105.861V234.337H-108V230.495Z" fill="#E5E5E5"/>
<path d="M-97.3069 230.495H-95.1683V234.337H-97.3069V230.495Z" fill="#E5E5E5"/>
<path d="M-86.6139 230.495H-84.4752V234.337H-86.6139V230.495Z" fill="#E5E5E5"/>
<path d="M-75.9208 230.495H-73.7822V234.337H-75.9208V230.495Z" fill="#E5E5E5"/>
<path d="M-65.2277 230.495H-63.0891V234.337H-65.2277V230.495Z" fill="#E5E5E5"/>
<path d="M-54.5347 230.495H-52.396V234.337H-54.5347V230.495Z" fill="#E5E5E5"/>
<path d="M-43.8416 230.495H-41.703V234.337H-43.8416V230.495Z" fill="#E5E5E5"/>
<path d="M-33.1485 230.495H-31.0099V234.337H-33.1485V230.495Z" fill="#E5E5E5"/>
<path d="M-22.4554 230.495H-20.3168V234.337H-22.4554V230.495Z" fill="#E5E5E5"/>
<path d="M-11.7624 230.495H-9.62376V234.337H-11.7624V230.495Z" fill="#E5E5E5"/>
<path d="M-1.06931 230.495H1.06931V234.337H-1.06931V230.495Z" fill="#E5E5E5"/>
<path d="M9.62376 230.495H11.7624V234.337H9.62376V230.495Z" fill="#E5E5E5"/>
<path d="M20.3168 230.495H22.4554V234.337H20.3168V230.495Z" fill="#E5E5E5"/>
<path d="M31.0099 230.495H33.1485V234.337H31.0099V230.495Z" fill="#E5E5E5"/>
<path d="M41.703 230.495H43.8416V234.337H41.703V230.495Z" fill="#E5E5E5"/>
<path d="M52.396 230.495H54.5347V234.337H52.396V230.495Z" fill="#E5E5E5"/>
<path d="M63.0891 230.495H65.2277V234.337H63.0891V230.495Z" fill="#E5E5E5"/>
<path d="M73.7822 230.495H75.9208V234.337H73.7822V230.495Z" fill="#E5E5E5"/>
<path d="M84.4753 230.495H86.6139V234.337H84.4753V230.495Z" fill="#E5E5E5"/>
<path d="M95.1683 230.495H97.3069V234.337H95.1683V230.495Z" fill="#E5E5E5"/>
<path d="M105.861 230.495H108V234.337H105.861V230.495Z" fill="#E5E5E5"/>
<path d="M-108 249.703H-105.861V253.545H-108V249.703Z" fill="#E5E5E5"/>
<path d="M-97.3069 249.703H-95.1683V253.545H-97.3069V249.703Z" fill="#E5E5E5"/>
<path d="M-86.6139 249.703H-84.4752V253.545H-86.6139V249.703Z" fill="#E5E5E5"/>
<path d="M-75.9208 249.703H-73.7822V253.545H-75.9208V249.703Z" fill="#E5E5E5"/>
<path d="M-65.2277 249.703H-63.0891V253.545H-65.2277V249.703Z" fill="#E5E5E5"/>
<path d="M-54.5347 249.703H-52.396V253.545H-54.5347V249.703Z" fill="#E5E5E5"/>
<path d="M-43.8416 249.703H-41.703V253.545H-43.8416V249.703Z" fill="#E5E5E5"/>
<path d="M-33.1485 249.703H-31.0099V253.545H-33.1485V249.703Z" fill="#E5E5E5"/>
<path d="M-22.4554 249.703H-20.3168V253.545H-22.4554V249.703Z" fill="#E5E5E5"/>
<path d="M-11.7624 249.703H-9.62376V253.545H-11.7624V249.703Z" fill="#E5E5E5"/>
<path d="M-1.06931 249.703H1.06931V253.545H-1.06931V249.703Z" fill="#E5E5E5"/>
<path d="M9.62376 249.703H11.7624V253.545H9.62376V249.703Z" fill="#E5E5E5"/>
<path d="M20.3168 249.703H22.4554V253.545H20.3168V249.703Z" fill="#E5E5E5"/>
<path d="M31.0099 249.703H33.1485V253.545H31.0099V249.703Z" fill="#E5E5E5"/>
<path d="M41.703 249.703H43.8416V253.545H41.703V249.703Z" fill="#E5E5E5"/>
<path d="M52.396 249.703H54.5347V253.545H52.396V249.703Z" fill="#E5E5E5"/>
<path d="M63.0891 249.703H65.2277V253.545H63.0891V249.703Z" fill="#E5E5E5"/>
<path d="M73.7822 249.703H75.9208V253.545H73.7822V249.703Z" fill="#E5E5E5"/>
<path d="M84.4753 249.703H86.6139V253.545H84.4753V249.703Z" fill="#E5E5E5"/>
<path d="M95.1683 249.703H97.3069V253.545H95.1683V249.703Z" fill="#E5E5E5"/>
<path d="M105.861 249.703H108V253.545H105.861V249.703Z" fill="#E5E5E5"/>
<path d="M-108 268.911H-105.861V272.752H-108V268.911Z" fill="#E5E5E5"/>
<path d="M-97.3069 268.911H-95.1683V272.752H-97.3069V268.911Z" fill="#E5E5E5"/>
<path d="M-86.6139 268.911H-84.4752V272.752H-86.6139V268.911Z" fill="#E5E5E5"/>
<path d="M-75.9208 268.911H-73.7822V272.752H-75.9208V268.911Z" fill="#E5E5E5"/>
<path d="M-65.2277 268.911H-63.0891V272.752H-65.2277V268.911Z" fill="#E5E5E5"/>
<path d="M-54.5347 268.911H-52.396V272.752H-54.5347V268.911Z" fill="#E5E5E5"/>
<path d="M-43.8416 268.911H-41.703V272.752H-43.8416V268.911Z" fill="#E5E5E5"/>
<path d="M-33.1485 268.911H-31.0099V272.752H-33.1485V268.911Z" fill="#E5E5E5"/>
<path d="M-22.4554 268.911H-20.3168V272.752H-22.4554V268.911Z" fill="#E5E5E5"/>
<path d="M-11.7624 268.911H-9.62376V272.752H-11.7624V268.911Z" fill="#E5E5E5"/>
<path d="M-1.06931 268.911H1.06931V272.752H-1.06931V268.911Z" fill="#E5E5E5"/>
<path d="M9.62376 268.911H11.7624V272.752H9.62376V268.911Z" fill="#E5E5E5"/>
<path d="M20.3168 268.911H22.4554V272.752H20.3168V268.911Z" fill="#E5E5E5"/>
<path d="M31.0099 268.911H33.1485V272.752H31.0099V268.911Z" fill="#E5E5E5"/>
<path d="M41.703 268.911H43.8416V272.752H41.703V268.911Z" fill="#E5E5E5"/>
<path d="M52.396 268.911H54.5347V272.752H52.396V268.911Z" fill="#E5E5E5"/>
<path d="M63.0891 268.911H65.2277V272.752H63.0891V268.911Z" fill="#E5E5E5"/>
<path d="M73.7822 268.911H75.9208V272.752H73.7822V268.911Z" fill="#E5E5E5"/>
<path d="M84.4753 268.911H86.6139V272.752H84.4753V268.911Z" fill="#E5E5E5"/>
<path d="M95.1683 268.911H97.3069V272.752H95.1683V268.911Z" fill="#E5E5E5"/>
<path d="M105.861 268.911H108V272.752H105.861V268.911Z" fill="#E5E5E5"/>
<path d="M-108 288.119H-105.861V291.96H-108V288.119Z" fill="#E5E5E5"/>
<path d="M-97.3069 288.119H-95.1683V291.96H-97.3069V288.119Z" fill="#E5E5E5"/>
<path d="M-86.6139 288.119H-84.4752V291.96H-86.6139V288.119Z" fill="#E5E5E5"/>
<path d="M-75.9208 288.119H-73.7822V291.96H-75.9208V288.119Z" fill="#E5E5E5"/>
<path d="M-65.2277 288.119H-63.0891V291.96H-65.2277V288.119Z" fill="#E5E5E5"/>
<path d="M-54.5347 288.119H-52.396V291.96H-54.5347V288.119Z" fill="#E5E5E5"/>
<path d="M-43.8416 288.119H-41.703V291.96H-43.8416V288.119Z" fill="#E5E5E5"/>
<path d="M-33.1485 288.119H-31.0099V291.96H-33.1485V288.119Z" fill="#E5E5E5"/>
<path d="M-22.4554 288.119H-20.3168V291.96H-22.4554V288.119Z" fill="#E5E5E5"/>
<path d="M-11.7624 288.119H-9.62376V291.96H-11.7624V288.119Z" fill="#E5E5E5"/>
<path d="M-1.06931 288.119H1.06931V291.96H-1.06931V288.119Z" fill="#E5E5E5"/>
<path d="M9.62376 288.119H11.7624V291.96H9.62376V288.119Z" fill="#E5E5E5"/>
<path d="M20.3168 288.119H22.4554V291.96H20.3168V288.119Z" fill="#E5E5E5"/>
<path d="M31.0099 288.119H33.1485V291.96H31.0099V288.119Z" fill="#E5E5E5"/>
<path d="M41.703 288.119H43.8416V291.96H41.703V288.119Z" fill="#E5E5E5"/>
<path d="M52.396 288.119H54.5347V291.96H52.396V288.119Z" fill="#E5E5E5"/>
<path d="M63.0891 288.119H65.2277V291.96H63.0891V288.119Z" fill="#E5E5E5"/>
<path d="M73.7822 288.119H75.9208V291.96H73.7822V288.119Z" fill="#E5E5E5"/>
<path d="M84.4753 288.119H86.6139V291.96H84.4753V288.119Z" fill="#E5E5E5"/>
<path d="M95.1683 288.119H97.3069V291.96H95.1683V288.119Z" fill="#E5E5E5"/>
<path d="M105.861 288.119H108V291.96H105.861V288.119Z" fill="#E5E5E5"/>
<path d="M-108 307.327H-105.861V311.168H-108V307.327Z" fill="#E5E5E5"/>
<path d="M-97.3069 307.327H-95.1683V311.168H-97.3069V307.327Z" fill="#E5E5E5"/>
<path d="M-86.6139 307.327H-84.4752V311.168H-86.6139V307.327Z" fill="#E5E5E5"/>
<path d="M-75.9208 307.327H-73.7822V311.168H-75.9208V307.327Z" fill="#E5E5E5"/>
<path d="M-65.2277 307.327H-63.0891V311.168H-65.2277V307.327Z" fill="#E5E5E5"/>
<path d="M-54.5347 307.327H-52.396V311.168H-54.5347V307.327Z" fill="#E5E5E5"/>
<path d="M-43.8416 307.327H-41.703V311.168H-43.8416V307.327Z" fill="#E5E5E5"/>
<path d="M-33.1485 307.327H-31.0099V311.168H-33.1485V307.327Z" fill="#E5E5E5"/>
<path d="M-22.4554 307.327H-20.3168V311.168H-22.4554V307.327Z" fill="#E5E5E5"/>
<path d="M-11.7624 307.327H-9.62376V311.168H-11.7624V307.327Z" fill="#E5E5E5"/>
<path d="M-1.06931 307.327H1.06931V311.168H-1.06931V307.327Z" fill="#E5E5E5"/>
<path d="M9.62376 307.327H11.7624V311.168H9.62376V307.327Z" fill="#E5E5E5"/>
<path d="M20.3168 307.327H22.4554V311.168H20.3168V307.327Z" fill="#E5E5E5"/>
<path d="M31.0099 307.327H33.1485V311.168H31.0099V307.327Z" fill="#E5E5E5"/>
<path d="M41.703 307.327H43.8416V311.168H41.703V307.327Z" fill="#E5E5E5"/>
<path d="M52.396 307.327H54.5347V311.168H52.396V307.327Z" fill="#E5E5E5"/>
<path d="M63.0891 307.327H65.2277V311.168H63.0891V307.327Z" fill="#E5E5E5"/>
<path d="M73.7822 307.327H75.9208V311.168H73.7822V307.327Z" fill="#E5E5E5"/>
<path d="M84.4753 307.327H86.6139V311.168H84.4753V307.327Z" fill="#E5E5E5"/>
<path d="M95.1683 307.327H97.3069V311.168H95.1683V307.327Z" fill="#E5E5E5"/>
<path d="M105.861 307.327H108V311.168H105.861V307.327Z" fill="#E5E5E5"/>
<path d="M-108 326.535H-105.861V330.376H-108V326.535Z" fill="#E5E5E5"/>
<path d="M-97.3069 326.535H-95.1683V330.376H-97.3069V326.535Z" fill="#E5E5E5"/>
<path d="M-86.6139 326.535H-84.4752V330.376H-86.6139V326.535Z" fill="#E5E5E5"/>
<path d="M-75.9208 326.535H-73.7822V330.376H-75.9208V326.535Z" fill="#E5E5E5"/>
<path d="M-65.2277 326.535H-63.0891V330.376H-65.2277V326.535Z" fill="#E5E5E5"/>
<path d="M-54.5347 326.535H-52.396V330.376H-54.5347V326.535Z" fill="#E5E5E5"/>
<path d="M-43.8416 326.535H-41.703V330.376H-43.8416V326.535Z" fill="#E5E5E5"/>
<path d="M-33.1485 326.535H-31.0099V330.376H-33.1485V326.535Z" fill="#E5E5E5"/>
<path d="M-22.4554 326.535H-20.3168V330.376H-22.4554V326.535Z" fill="#E5E5E5"/>
<path d="M-11.7624 326.535H-9.62376V330.376H-11.7624V326.535Z" fill="#E5E5E5"/>
<path d="M-1.06931 326.535H1.06931V330.376H-1.06931V326.535Z" fill="#E5E5E5"/>
<path d="M9.62376 326.535H11.7624V330.376H9.62376V326.535Z" fill="#E5E5E5"/>
<path d="M20.3168 326.535H22.4554V330.376H20.3168V326.535Z" fill="#E5E5E5"/>
<path d="M31.0099 326.535H33.1485V330.376H31.0099V326.535Z" fill="#E5E5E5"/>
<path d="M41.703 326.535H43.8416V330.376H41.703V326.535Z" fill="#E5E5E5"/>
<path d="M52.396 326.535H54.5347V330.376H52.396V326.535Z" fill="#E5E5E5"/>
<path d="M63.0891 326.535H65.2277V330.376H63.0891V326.535Z" fill="#E5E5E5"/>
<path d="M73.7822 326.535H75.9208V330.376H73.7822V326.535Z" fill="#E5E5E5"/>
<path d="M84.4753 326.535H86.6139V330.376H84.4753V326.535Z" fill="#E5E5E5"/>
<path d="M95.1683 326.535H97.3069V330.376H95.1683V326.535Z" fill="#E5E5E5"/>
<path d="M105.861 326.535H108V330.376H105.861V326.535Z" fill="#E5E5E5"/>
<path d="M-108 345.743H-105.861V349.584H-108V345.743Z" fill="#E5E5E5"/>
<path d="M-97.3069 345.743H-95.1683V349.584H-97.3069V345.743Z" fill="#E5E5E5"/>
<path d="M-86.6139 345.743H-84.4752V349.584H-86.6139V345.743Z" fill="#E5E5E5"/>
<path d="M-75.9208 345.743H-73.7822V349.584H-75.9208V345.743Z" fill="#E5E5E5"/>
<path d="M-65.2277 345.743H-63.0891V349.584H-65.2277V345.743Z" fill="#E5E5E5"/>
<path d="M-54.5347 345.743H-52.396V349.584H-54.5347V345.743Z" fill="#E5E5E5"/>
<path d="M-43.8416 345.743H-41.703V349.584H-43.8416V345.743Z" fill="#E5E5E5"/>
<path d="M-33.1485 345.743H-31.0099V349.584H-33.1485V345.743Z" fill="#E5E5E5"/>
<path d="M-22.4554 345.743H-20.3168V349.584H-22.4554V345.743Z" fill="#E5E5E5"/>
<path d="M-11.7624 345.743H-9.62376V349.584H-11.7624V345.743Z" fill="#E5E5E5"/>
<path d="M-1.06931 345.743H1.06931V349.584H-1.06931V345.743Z" fill="#E5E5E5"/>
<path d="M9.62376 345.743H11.7624V349.584H9.62376V345.743Z" fill="#E5E5E5"/>
<path d="M20.3168 345.743H22.4554V349.584H20.3168V345.743Z" fill="#E5E5E5"/>
<path d="M31.0099 345.743H33.1485V349.584H31.0099V345.743Z" fill="#E5E5E5"/>
<path d="M41.703 345.743H43.8416V349.584H41.703V345.743Z" fill="#E5E5E5"/>
<path d="M52.396 345.743H54.5347V349.584H52.396V345.743Z" fill="#E5E5E5"/>
<path d="M63.0891 345.743H65.2277V349.584H63.0891V345.743Z" fill="#E5E5E5"/>
<path d="M73.7822 345.743H75.9208V349.584H73.7822V345.743Z" fill="#E5E5E5"/>
<path d="M84.4753 345.743H86.6139V349.584H84.4753V345.743Z" fill="#E5E5E5"/>
<path d="M95.1683 345.743H97.3069V349.584H95.1683V345.743Z" fill="#E5E5E5"/>
<path d="M105.861 345.743H108V349.584H105.861V345.743Z" fill="#E5E5E5"/>
<path d="M-108 364.951H-105.861V368.792H-108V364.951Z" fill="#E5E5E5"/>
<path d="M-97.3069 364.951H-95.1683V368.792H-97.3069V364.951Z" fill="#E5E5E5"/>
<path d="M-86.6139 364.951H-84.4752V368.792H-86.6139V364.951Z" fill="#E5E5E5"/>
<path d="M-75.9208 364.951H-73.7822V368.792H-75.9208V364.951Z" fill="#E5E5E5"/>
<path d="M-65.2277 364.951H-63.0891V368.792H-65.2277V364.951Z" fill="#E5E5E5"/>
<path d="M-54.5347 364.951H-52.396V368.792H-54.5347V364.951Z" fill="#E5E5E5"/>
<path d="M-43.8416 364.951H-41.703V368.792H-43.8416V364.951Z" fill="#E5E5E5"/>
<path d="M-33.1485 364.951H-31.0099V368.792H-33.1485V364.951Z" fill="#E5E5E5"/>
<path d="M-22.4554 364.951H-20.3168V368.792H-22.4554V364.951Z" fill="#E5E5E5"/>
<path d="M-11.7624 364.951H-9.62376V368.792H-11.7624V364.951Z" fill="#E5E5E5"/>
<path d="M-1.06931 364.951H1.06931V368.792H-1.06931V364.951Z" fill="#E5E5E5"/>
<path d="M9.62376 364.951H11.7624V368.792H9.62376V364.951Z" fill="#E5E5E5"/>
<path d="M20.3168 364.951H22.4554V368.792H20.3168V364.951Z" fill="#E5E5E5"/>
<path d="M31.0099 364.951H33.1485V368.792H31.0099V364.951Z" fill="#E5E5E5"/>
<path d="M41.703 364.951H43.8416V368.792H41.703V364.951Z" fill="#E5E5E5"/>
<path d="M52.396 364.951H54.5347V368.792H52.396V364.951Z" fill="#E5E5E5"/>
<path d="M63.0891 364.951H65.2277V368.792H63.0891V364.951Z" fill="#E5E5E5"/>
<path d="M73.7822 364.951H75.9208V368.792H73.7822V364.951Z" fill="#E5E5E5"/>
<path d="M84.4753 364.951H86.6139V368.792H84.4753V364.951Z" fill="#E5E5E5"/>
<path d="M95.1683 364.951H97.3069V368.792H95.1683V364.951Z" fill="#E5E5E5"/>
<path d="M105.861 364.951H108V368.792H105.861V364.951Z" fill="#E5E5E5"/>
<path d="M-108 384.158H-105.861V388H-108V384.158Z" fill="#E5E5E5"/>
<path d="M-97.3069 384.158H-95.1683V388H-97.3069V384.158Z" fill="#E5E5E5"/>
<path d="M-86.6139 384.158H-84.4752V388H-86.6139V384.158Z" fill="#E5E5E5"/>
<path d="M-75.9208 384.158H-73.7822V388H-75.9208V384.158Z" fill="#E5E5E5"/>
<path d="M-65.2277 384.158H-63.0891V388H-65.2277V384.158Z" fill="#E5E5E5"/>
<path d="M-54.5347 384.158H-52.396V388H-54.5347V384.158Z" fill="#E5E5E5"/>
<path d="M-43.8416 384.158H-41.703V388H-43.8416V384.158Z" fill="#E5E5E5"/>
<path d="M-33.1485 384.158H-31.0099V388H-33.1485V384.158Z" fill="#E5E5E5"/>
<path d="M-22.4554 384.158H-20.3168V388H-22.4554V384.158Z" fill="#E5E5E5"/>
<path d="M-11.7624 384.158H-9.62376V388H-11.7624V384.158Z" fill="#E5E5E5"/>
<path d="M-1.06931 384.158H1.06931V388H-1.06931V384.158Z" fill="#E5E5E5"/>
<path d="M9.62376 384.158H11.7624V388H9.62376V384.158Z" fill="#E5E5E5"/>
<path d="M20.3168 384.158H22.4554V388H20.3168V384.158Z" fill="#E5E5E5"/>
<path d="M31.0099 384.158H33.1485V388H31.0099V384.158Z" fill="#E5E5E5"/>
<path d="M41.703 384.158H43.8416V388H41.703V384.158Z" fill="#E5E5E5"/>
<path d="M52.396 384.158H54.5347V388H52.396V384.158Z" fill="#E5E5E5"/>
<path d="M63.0891 384.158H65.2277V388H63.0891V384.158Z" fill="#E5E5E5"/>
<path d="M73.7822 384.158H75.9208V388H73.7822V384.158Z" fill="#E5E5E5"/>
<path d="M84.4753 384.158H86.6139V388H84.4753V384.158Z" fill="#E5E5E5"/>
<path d="M95.1683 384.158H97.3069V388H95.1683V384.158Z" fill="#E5E5E5"/>
<path d="M105.861 384.158H108V388H105.861V384.158Z" fill="#E5E5E5"/>
</svg>
