<svg width="151" height="44" viewBox="0 0 151 44" fill="none" xmlns="http://www.w3.org/2000/svg">
<path d="M0 22C0 15.6968 0 12.5452 0.918528 10.0215C2.45834 5.79094 5.79094 2.45834 10.0215 0.918528C12.5452 0 15.6968 0 22 0C28.3032 0 31.4548 0 33.9785 0.918528C38.2091 2.45834 41.5417 5.79094 43.0815 10.0215C44 12.5452 44 15.6968 44 22C44 28.3032 44 31.4548 43.0815 33.9785C41.5417 38.2091 38.2091 41.5417 33.9785 43.0815C31.4548 44 28.3032 44 22 44C15.6968 44 12.5452 44 10.0215 43.0815C5.79094 41.5417 2.45834 38.2091 0.918528 33.9785C0 31.4548 0 28.3032 0 22Z" fill="url(#paint0_linear_620_1141)"/>
<path d="M27.0769 17.7692C27.0769 22.4424 23.2886 26.2308 18.6154 26.2308C13.9422 26.2308 10.1538 22.4424 10.1538 17.7692C10.1538 13.0961 13.9422 9.30769 18.6154 9.30769C23.2886 9.30769 27.0769 13.0961 27.0769 17.7692Z" fill="url(#paint1_linear_620_1141)"/>
<path d="M33.8462 30.4615C33.8462 33.2654 31.5731 35.5385 28.7692 35.5385C25.9653 35.5385 23.6923 33.2654 23.6923 30.4615C23.6923 27.6576 25.9653 25.3846 28.7692 25.3846C31.5731 25.3846 33.8462 27.6576 33.8462 30.4615Z" fill="url(#paint2_linear_620_1141)"/>
<path d="M0.5 22C0.5 15.6533 0.507601 12.6125 1.38837 10.1926C2.87764 6.10084 6.10084 2.87764 10.1926 1.38837C12.6125 0.507601 15.6533 0.5 22 0.5C28.3467 0.5 31.3875 0.507601 33.8074 1.38837C37.8992 2.87764 41.1224 6.10084 42.6116 10.1926C43.4924 12.6125 43.5 15.6533 43.5 22C43.5 28.3467 43.4924 31.3875 42.6116 33.8074C41.1224 37.8992 37.8992 41.1224 33.8074 42.6116C31.3875 43.4924 28.3467 43.5 22 43.5C15.6533 43.5 12.6125 43.4924 10.1926 42.6116C6.10084 41.1224 2.87764 37.8992 1.38837 33.8074C0.507601 31.3875 0.5 28.3467 0.5 22ZM26.5769 17.7692C26.5769 22.1663 23.0124 25.7308 18.6154 25.7308C14.2183 25.7308 10.6538 22.1663 10.6538 17.7692C10.6538 13.3722 14.2183 9.80769 18.6154 9.80769C23.0124 9.80769 26.5769 13.3722 26.5769 17.7692ZM18.6154 26.7308C23.5647 26.7308 27.5769 22.7186 27.5769 17.7692C27.5769 12.8199 23.5647 8.80769 18.6154 8.80769C13.6661 8.80769 9.65385 12.8199 9.65385 17.7692C9.65385 22.7186 13.6661 26.7308 18.6154 26.7308ZM33.3462 30.4615C33.3462 32.9893 31.297 35.0385 28.7692 35.0385C26.2415 35.0385 24.1923 32.9893 24.1923 30.4615C24.1923 27.9338 26.2415 25.8846 28.7692 25.8846C31.297 25.8846 33.3462 27.9338 33.3462 30.4615ZM28.7692 36.0385C31.8493 36.0385 34.3462 33.5416 34.3462 30.4615C34.3462 27.3815 31.8493 24.8846 28.7692 24.8846C25.6892 24.8846 23.1923 27.3815 23.1923 30.4615C23.1923 33.5416 25.6892 36.0385 28.7692 36.0385Z" stroke="white"/>
<path d="M69.3731 14.8911V17.9215H64.5038V30.681H60.8693V17.9215H56V14.8911H69.3731Z" fill="#0B204F"/>
<path d="M74.4069 28.3114C74.7486 28.3114 75.0748 28.3038 75.3854 28.2886C75.6961 28.2734 75.9446 28.2506 76.131 28.2203V25.6456C75.9912 25.6152 75.7815 25.5848 75.5019 25.5544C75.2224 25.524 74.9661 25.5089 74.7331 25.5089C74.4069 25.5089 74.0963 25.5316 73.8012 25.5772C73.5216 25.6076 73.2731 25.6759 73.0556 25.7823C72.8382 25.8886 72.6673 26.0329 72.5431 26.2152C72.4188 26.3975 72.3567 26.6253 72.3567 26.8987C72.3567 27.4304 72.5353 27.8025 72.8925 28.0152C73.2653 28.2127 73.7701 28.3114 74.4069 28.3114ZM74.1273 18.3772C75.1525 18.3772 76.0067 18.4911 76.6901 18.719C77.3735 18.9468 77.9172 19.2734 78.321 19.6987C78.7404 20.1241 79.0355 20.6405 79.2063 21.2481C79.3772 21.8557 79.4626 22.5316 79.4626 23.2759V30.3392C78.9656 30.4456 78.2744 30.5671 77.3891 30.7038C76.5037 30.8557 75.432 30.9316 74.1739 30.9316C73.3818 30.9316 72.6596 30.8633 72.0072 30.7266C71.3704 30.5899 70.819 30.3696 70.3531 30.0658C69.8871 29.7468 69.5299 29.3367 69.2813 28.8354C69.0328 28.3342 68.9086 27.719 68.9086 26.9899C68.9086 26.2911 69.0484 25.6987 69.3279 25.2127C69.6231 24.7266 70.0114 24.3392 70.4928 24.0506C70.9743 23.762 71.5257 23.557 72.147 23.4354C72.7683 23.2987 73.4129 23.2304 74.0807 23.2304C74.5312 23.2304 74.9272 23.2532 75.2689 23.2987C75.6262 23.3291 75.9135 23.3747 76.131 23.4354V23.1165C76.131 22.5392 75.9524 22.0759 75.5951 21.7266C75.2379 21.3772 74.6166 21.2025 73.7313 21.2025C73.1411 21.2025 72.5586 21.2481 71.9839 21.3392C71.4092 21.4152 70.9122 21.5291 70.4928 21.681L70.0502 18.9468C70.2521 18.8861 70.5006 18.8253 70.7957 18.7646C71.1064 18.6886 71.4403 18.6278 71.7975 18.5823C72.1548 18.5215 72.5275 18.4759 72.9158 18.4456C73.3197 18.4 73.7235 18.3772 74.1273 18.3772Z" fill="#0B204F"/>
<path d="M87.4942 30.9089C86.4847 30.8937 85.6615 30.7873 85.0246 30.5899C84.4034 30.3924 83.9063 30.119 83.5336 29.7696C83.1763 29.4051 82.9278 28.9722 82.788 28.4709C82.6638 27.9544 82.6016 27.3772 82.6016 26.7392V13.5468L86.0731 13V26.0557C86.0731 26.3595 86.0964 26.6329 86.143 26.8759C86.1895 27.119 86.275 27.3241 86.3992 27.4911C86.539 27.6582 86.7332 27.7949 86.9817 27.9013C87.2302 28.0076 87.5641 28.0759 87.9835 28.1063L87.4942 30.9089Z" fill="#0B204F"/>
<path d="M93.4447 23.0253C93.7864 22.6608 94.1359 22.281 94.4931 21.8861C94.8659 21.4911 95.2231 21.1038 95.5648 20.7241C95.9065 20.3291 96.2249 19.957 96.52 19.6076C96.8307 19.2582 97.0947 18.9544 97.3122 18.6962H101.436C100.613 19.6228 99.8051 20.5114 99.0129 21.362C98.2363 22.1975 97.3821 23.0633 96.4502 23.9595C96.9161 24.3696 97.3976 24.8633 97.8946 25.4405C98.3917 26.0025 98.8732 26.5873 99.3391 27.1949C99.8051 27.8025 100.232 28.4101 100.621 29.0177C101.009 29.6253 101.335 30.1797 101.599 30.681H97.6151C97.3665 30.2861 97.0792 29.8532 96.753 29.3823C96.4424 28.8962 96.1084 28.4177 95.7512 27.9468C95.394 27.4608 95.0134 26.9975 94.6096 26.557C94.2213 26.1165 93.833 25.7443 93.4447 25.4405V30.681H89.9733V13.5468L93.4447 13V23.0253Z" fill="#0B204F"/>
<path d="M111.06 31C108.435 31 106.432 30.2861 105.05 28.8582C103.683 27.4304 102.999 25.4025 102.999 22.7747C102.999 21.4684 103.209 20.3063 103.628 19.2886C104.048 18.2557 104.622 17.3899 105.352 16.6911C106.082 15.9772 106.952 15.438 107.962 15.0734C108.971 14.7089 110.066 14.5266 111.247 14.5266C111.93 14.5266 112.551 14.5797 113.111 14.6861C113.67 14.7772 114.159 14.8911 114.578 15.0278C114.998 15.1494 115.347 15.2785 115.627 15.4152C115.906 15.5519 116.108 15.6582 116.233 15.7342L115.184 18.6051C114.687 18.3468 114.105 18.1266 113.437 17.9443C112.784 17.762 112.039 17.6709 111.2 17.6709C110.641 17.6709 110.09 17.762 109.546 17.9443C109.018 18.1266 108.544 18.4228 108.125 18.8329C107.721 19.2278 107.395 19.7443 107.146 20.3823C106.898 21.0203 106.774 21.7949 106.774 22.7063C106.774 23.4354 106.851 24.119 107.007 24.757C107.177 25.3797 107.441 25.919 107.799 26.3747C108.171 26.8304 108.653 27.1949 109.243 27.4684C109.833 27.7266 110.548 27.8557 111.387 27.8557C111.915 27.8557 112.388 27.8253 112.808 27.7646C113.227 27.7038 113.6 27.6354 113.926 27.5595C114.252 27.4684 114.54 27.3696 114.788 27.2633C115.037 27.157 115.262 27.0582 115.464 26.9671L116.466 29.8152C115.953 30.119 115.231 30.3924 114.299 30.6354C113.367 30.8785 112.287 31 111.06 31Z" fill="#0B204F"/>
<path d="M123.483 28.3114C123.825 28.3114 124.151 28.3038 124.462 28.2886C124.772 28.2734 125.021 28.2506 125.207 28.2203V25.6456C125.067 25.6152 124.858 25.5848 124.578 25.5544C124.298 25.524 124.042 25.5089 123.809 25.5089C123.483 25.5089 123.172 25.5316 122.877 25.5772C122.598 25.6076 122.349 25.6759 122.132 25.7823C121.914 25.8886 121.743 26.0329 121.619 26.2152C121.495 26.3975 121.433 26.6253 121.433 26.8987C121.433 27.4304 121.611 27.8025 121.969 28.0152C122.341 28.2127 122.846 28.3114 123.483 28.3114ZM123.203 18.3772C124.229 18.3772 125.083 18.4911 125.766 18.719C126.45 18.9468 126.993 19.2734 127.397 19.6987C127.816 20.1241 128.112 20.6405 128.282 21.2481C128.453 21.8557 128.539 22.5316 128.539 23.2759V30.3392C128.042 30.4456 127.35 30.5671 126.465 30.7038C125.58 30.8557 124.508 30.9316 123.25 30.9316C122.458 30.9316 121.736 30.8633 121.083 30.7266C120.446 30.5899 119.895 30.3696 119.429 30.0658C118.963 29.7468 118.606 29.3367 118.357 28.8354C118.109 28.3342 117.985 27.719 117.985 26.9899C117.985 26.2911 118.124 25.6987 118.404 25.2127C118.699 24.7266 119.087 24.3392 119.569 24.0506C120.05 23.762 120.602 23.557 121.223 23.4354C121.844 23.2987 122.489 23.2304 123.157 23.2304C123.607 23.2304 124.003 23.2532 124.345 23.2987C124.702 23.3291 124.99 23.3747 125.207 23.4354V23.1165C125.207 22.5392 125.028 22.0759 124.671 21.7266C124.314 21.3772 123.693 21.2025 122.807 21.2025C122.217 21.2025 121.635 21.2481 121.06 21.3392C120.485 21.4152 119.988 21.5291 119.569 21.681L119.126 18.9468C119.328 18.8861 119.577 18.8253 119.872 18.7646C120.182 18.6886 120.516 18.6278 120.874 18.5823C121.231 18.5215 121.604 18.4759 121.992 18.4456C122.396 18.4 122.8 18.3772 123.203 18.3772Z" fill="#0B204F"/>
<path d="M135.196 28.243C135.833 28.243 136.283 28.1823 136.547 28.0608C136.811 27.9392 136.943 27.7038 136.943 27.3544C136.943 27.081 136.772 26.8456 136.431 26.6481C136.089 26.4354 135.568 26.2 134.87 25.9418C134.326 25.7443 133.829 25.5392 133.378 25.3266C132.944 25.1139 132.571 24.8633 132.26 24.5747C131.95 24.2709 131.709 23.9139 131.538 23.5038C131.367 23.0937 131.282 22.6 131.282 22.0228C131.282 20.8987 131.709 20.0101 132.563 19.357C133.417 18.7038 134.59 18.3772 136.081 18.3772C136.827 18.3772 137.541 18.4456 138.224 18.5823C138.908 18.7038 139.452 18.8405 139.855 18.9924L139.25 21.6354C138.846 21.4987 138.403 21.3772 137.922 21.2709C137.456 21.1646 136.928 21.1114 136.337 21.1114C135.25 21.1114 134.706 21.4076 134.706 22C134.706 22.1367 134.73 22.2582 134.776 22.3646C134.823 22.4709 134.916 22.5772 135.056 22.6835C135.196 22.7747 135.382 22.881 135.615 23.0025C135.864 23.1089 136.174 23.2304 136.547 23.3671C137.308 23.6405 137.937 23.9139 138.434 24.1873C138.931 24.4456 139.319 24.7342 139.599 25.0532C139.894 25.357 140.096 25.6987 140.205 26.0785C140.329 26.4582 140.391 26.8987 140.391 27.4C140.391 28.5848 139.933 29.481 139.017 30.0886C138.116 30.6962 136.834 31 135.172 31C134.085 31 133.177 30.9089 132.447 30.7266C131.732 30.5443 131.235 30.3924 130.955 30.2709L131.538 27.5139C132.128 27.7418 132.734 27.9241 133.355 28.0608C133.976 28.1823 134.59 28.243 135.196 28.243Z" fill="#0B204F"/>
<path d="M142.869 15.7114L146.34 15.1646V18.6962H150.511V21.5215H146.34V25.7367C146.34 26.4506 146.465 27.0203 146.713 27.4456C146.977 27.8709 147.498 28.0835 148.274 28.0835C148.647 28.0835 149.027 28.0532 149.416 27.9924C149.82 27.9165 150.185 27.8177 150.511 27.6962L151 30.3392C150.581 30.5063 150.115 30.6506 149.602 30.7722C149.09 30.8937 148.461 30.9544 147.715 30.9544C146.768 30.9544 145.983 30.8329 145.362 30.5899C144.741 30.3316 144.244 29.9823 143.871 29.5418C143.498 29.0861 143.234 28.5392 143.079 27.9013C142.939 27.2633 142.869 26.557 142.869 25.7823V15.7114Z" fill="#0B204F"/>
<defs>
<linearGradient id="paint0_linear_620_1141" x1="22" y1="0" x2="22" y2="44" gradientUnits="userSpaceOnUse">
<stop/>
<stop offset="1" stop-color="#163E9A"/>
</linearGradient>
<linearGradient id="paint1_linear_620_1141" x1="22" y1="9.30769" x2="27.5" y2="35.5385" gradientUnits="userSpaceOnUse">
<stop stop-color="#3250E0"/>
<stop offset="1" stop-color="#4361EE"/>
</linearGradient>
<linearGradient id="paint2_linear_620_1141" x1="22" y1="9.30769" x2="27.5" y2="35.5385" gradientUnits="userSpaceOnUse">
<stop stop-color="#3250E0"/>
<stop offset="1" stop-color="#4361EE"/>
</linearGradient>
</defs>
</svg>
